<?xml version="1.0" encoding="UTF-8" standalone="no"?>
<!-- Created with Inkscape (http://www.inkscape.org/) -->

<svg
   xmlns:dc="http://purl.org/dc/elements/1.1/"
   xmlns:cc="http://creativecommons.org/ns#"
   xmlns:rdf="http://www.w3.org/1999/02/22-rdf-syntax-ns#"
   xmlns:svg="http://www.w3.org/2000/svg"
   xmlns="http://www.w3.org/2000/svg"
   xmlns:sodipodi="http://sodipodi.sourceforge.net/DTD/sodipodi-0.dtd"
   xmlns:inkscape="http://www.inkscape.org/namespaces/inkscape"
   id="svg3011"
   version="1.1"
   inkscape:version="0.48.4 r9939"
   width="3917"
   height="1694"
   sodipodi:docname="BB-consulting-Logo-CMYK.png">
  <metadata
     id="metadata3017">
    <rdf:RDF>
      <cc:Work
         rdf:about="">
        <dc:format>image/svg+xml</dc:format>
        <dc:type
           rdf:resource="http://purl.org/dc/dcmitype/StillImage" />
        <dc:title></dc:title>
      </cc:Work>
    </rdf:RDF>
  </metadata>
  <defs
     id="defs3015" />
  <sodipodi:namedview
     pagecolor="#ffffff"
     bordercolor="#666666"
     borderopacity="1"
     objecttolerance="10"
     gridtolerance="10"
     guidetolerance="10"
     inkscape:pageopacity="0"
     inkscape:pageshadow="2"
     inkscape:window-width="1920"
     inkscape:window-height="1018"
     id="namedview3013"
     showgrid="false"
     inkscape:zoom="0.2491211"
     inkscape:cx="-444.92878"
     inkscape:cy="2433.8289"
     inkscape:window-x="-8"
     inkscape:window-y="-8"
     inkscape:window-maximized="1"
     inkscape:current-layer="svg3011" />
  <g
     id="g3023"
     transform="translate(50.634044,5.3747088)">
    <path
       style="fill:#a4b6eb"
       d="m 2445,1682.201 c 0,-0.5644 3.2625,-2.2469 7.25,-3.739 17.2066,-6.4386 76.3796,-30.2183 100.7338,-40.4816 197.3934,-83.1856 395.5463,-186.7635 558.5162,-291.9462 27.2498,-17.5873 79.0309,-52.5256 99.7455,-67.3012 18.6628,-13.3121 21.7545,-15.3031 21.7545,-14.0093 0,0.868 -35.477,36.2219 -51.5159,51.3372 -66.4029,62.5791 -149.9824,125.5343 -234.4841,176.6219 -142.4911,86.1467 -314.7716,154.0062 -467.9356,184.3151 -29.9059,5.9179 -34.0644,6.5531 -34.0644,5.2031 z M 2227.3234,1274.93 c -18.5173,-1.1812 -28.5556,-4.316 -35.2465,-11.0069 -4.7706,-4.7707 -6.9359,-9.8398 -7.2753,-17.0322 l -0.3016,-6.3909 9.959,0 9.959,0 0.6907,3.3772 c 2.321,11.3484 11.9188,14.5559 43.3913,14.501 40.0903,-0.07 47.8802,-4.1688 50.0653,-26.3441 0.6958,-7.0617 0,-8.6268 -2.4938,-5.6203 -2.1998,2.6507 -9.6882,5.4207 -17.9001,6.6215 -5.5502,0.8115 -16.6727,1.0324 -34.4348,0.6839 -34.3476,-0.6741 -41.5774,-2.3985 -50.4605,-12.0355 -5.4225,-5.8827 -7.6678,-10.4875 -9.7942,-20.0865 -2.4514,-11.066 -1.6387,-32.2478 1.596,-41.5972 4.1555,-12.011 13.0374,-20.489 24.6385,-23.518 12.4058,-3.2392 47.3148,-4.5505 65.5429,-2.462 9.6031,1.1003 15.543,3.0287 20.424,6.6308 4.056,2.9932 4.5071,2.951 4.2861,-0.4008 -0.3606,-5.4692 -0.5907,-5.3444 9.2806,-5.0375 l 9.25,0.2875 0.2931,46 c 0.3682,57.7774 -0.629,68.2505 -7.4856,78.6115 -3.3961,5.1318 -11.5513,10.4977 -18.8075,12.3748 -6.1617,1.594 -33.5315,3.589 -46,3.353 -3.85,-0.073 -12.4795,-0.4821 -19.1766,-0.9093 z m 55.1766,-60.3416 c 6.3622,-2.2128 11.0801,-6.4414 13.8327,-12.3982 1.8965,-4.1042 2.1673,-6.4393 2.1673,-18.6902 0,-15.1474 -0.8345,-18.825 -5.4095,-23.8393 -5.7417,-6.2931 -13.7196,-8.5023 -33.5905,-9.3019 -16.6433,-0.6698 -33.1518,0.634 -41.284,3.2604 -9.325,3.0117 -14.1342,10.6965 -15.7761,25.2095 -0.8492,7.5055 1.0009,19.4775 3.8883,25.1621 2.884,5.6778 8.9509,9.9873 16.4048,11.6528 9.0584,2.024 53.1518,1.2455 59.767,-1.0552 z m 1298.8234,60.4056 c -25.6854,-1.7735 -37.9416,-8.1219 -41.9199,-21.7138 -0.8403,-2.8708 -1.3874,-6.9208 -1.2157,-9 l 0.3122,-3.7802 8.8489,-0.2904 c 9.8363,-0.3228 11.1363,0.2325 12.0589,5.1509 0.7863,4.1909 4.8832,8.1186 10.6064,10.1684 11.5705,4.1441 53.1465,4.0906 66.9858,-0.086 6.5431,-1.9747 12.0209,-7.1714 13.7155,-13.0114 1.3435,-4.6302 2.7722,-17.4314 1.9454,-17.4314 -0.3146,0 -2.2445,1.1349 -4.2886,2.5221 -8.0129,5.4377 -12.1506,5.9803 -45.3723,5.9505 -39.0037,-0.035 -45.9273,-1.4833 -55.6454,-11.6401 -8.2736,-8.647 -11.4667,-19.0055 -11.465,-37.1921 0,-12.5012 0.8642,-18.9757 3.524,-26.4391 3.619,-10.1545 12.7511,-18.4629 23.7919,-21.646 11.2652,-3.2477 47.5213,-4.6324 66.2945,-2.5319 6.7513,0.7554 10.624,1.8152 15.5,4.2418 3.575,1.7791 6.807,3.3746 7.1821,3.5455 0.3752,0.1709 0.8252,-1.1791 1,-3 l 0.3179,-3.3107 9.5,0 9.5,0 0,50.5 c 0,53.2738 -0.4065,59.2628 -4.6999,69.243 -2.7975,6.503 -10.9809,13.8657 -17.8924,16.0978 -2.9464,0.9516 -8.2935,2.1339 -11.8824,2.6273 -9.9653,1.3701 -43.048,1.9686 -56.7019,1.0259 z m 48.5947,-59.1227 c 8.151,-1.3977 12.8549,-3.7098 16.8845,-8.2993 4.5844,-5.2213 5.6975,-10.2177 5.6967,-25.572 -5e-4,-11.2599 -0.3103,-14.0808 -1.8669,-17 -5.7012,-10.6916 -13.2841,-13.6816 -37.1324,-14.6412 -24.9965,-1.0059 -42.6375,1.6991 -48.8416,7.4892 -6.1843,5.7717 -9.3247,17.0109 -8.3684,29.9502 1.2744,17.2435 7.8764,25.87 21.5685,28.1826 7.2507,1.2247 44.7391,1.1458 52.0596,-0.1095 z m 70.5035,55.7851 c -0.2835,-0.739 -0.3819,-4.6117 -0.2186,-8.6061 l 0.297,-7.2625 11,-0.2826 c 15.2859,-0.3928 21.1457,-2.892 27.5684,-11.7583 3.4137,-4.7126 3.5397,-5.3505 1.1816,-5.9831 -2.185,-0.5861 -59.5415,-99.5618 -58.8063,-101.4776 0.4022,-1.0482 2.9529,-1.2901 11.288,-1.0702 l 10.7683,0.284 24.4216,42.8462 c 22.8837,40.1479 24.5011,42.6985 25.6828,40.5 0.6936,-1.2904 10.9036,-20.5712 22.6889,-42.8462 l 21.4278,-40.5 10.6578,-0.284 c 8.7728,-0.2338 10.7605,-0.016 11.2384,1.229 0.3418,0.8909 -10.4047,21.9803 -26.1328,51.2841 -32.2327,60.054 -34.5401,64.0436 -41.2777,71.3732 -9.8394,10.704 -18.789,13.8498 -39.4882,13.8803 -8.9527,0.013 -11.9052,-0.3052 -12.297,-1.3262 z M 1130.5,1238.3337 c -25.6249,-3.1318 -34.6164,-9.9532 -40.0627,-30.3937 -2.5717,-9.6517 -2.3584,-34.8958 0.3769,-44.6202 4.8018,-17.0709 13.8671,-25.0703 32.225,-28.4357 9.5373,-1.7485 54.3461,-1.8026 64.6881,-0.078 21.514,3.5873 30.924,13.0858 31.5718,31.8688 l 0.2009,5.8252 -9.3859,0 -9.386,0 -1.3452,-5.2564 c -1.8029,-7.0448 -3.7493,-9.7596 -8.7157,-12.1566 -7.6476,-3.6909 -14.2691,-4.528 -35.6672,-4.5087 -29.2153,0.026 -36.9928,2.5759 -42.5581,13.9508 -2.4282,4.9632 -2.8112,7.0895 -3.2286,17.9244 -0.9082,23.5751 3.9963,33.1913 19.0176,37.2877 9.1886,2.5059 50.7552,2.538 58.7969,0.046 7.2943,-2.2609 10.7695,-6.0113 12.9449,-13.9698 l 1.7266,-6.3169 8.8091,-0.2912 c 4.845,-0.1602 9.1865,0.086 9.6477,0.5473 1.3213,1.3213 -1.0443,17.1044 -3.1957,21.3214 -4.4332,8.69 -13.1258,14.219 -25.9604,16.5125 -6.9183,1.2363 -51.9412,1.7897 -60.5,0.7437 z m 142.5,-0.3588 c -21.1214,-2.4767 -31.802,-10.644 -36.6324,-28.0122 -2.572,-9.2478 -2.5541,-38.8045 0.029,-47.4627 2.5288,-8.4771 7.3547,-16.127 12.6036,-19.9788 10.6734,-7.8327 18.0451,-9.0494 54,-8.9133 37.6609,0.1427 46.0991,1.6493 55.8149,9.9656 10.024,8.5802 13.5756,20.0351 13.4643,43.4265 -0.059,12.3487 -0.4843,16.9598 -2.0934,22.6802 -4.9637,17.6465 -14.8667,25.7732 -34.5183,28.3267 -8.421,1.0942 -53.2586,1.0714 -62.6675,-0.032 z m 55.8708,-17.0237 c 11.0255,-1.7891 17.5811,-6.5241 20.7191,-14.9654 2.2323,-6.0049 3.0921,-26.3254 1.4333,-33.8741 -2.5483,-11.5969 -8.6906,-17.6515 -20.5232,-20.2304 -8.4916,-1.8507 -47.143,-1.8486 -54.5,0 -14.4171,3.6284 -19.1158,9.1663 -21.0081,24.7609 -1.8943,15.6105 1.0046,30.9422 7.0394,37.2299 2.8541,2.9737 9.7877,6.085 15.8393,7.1075 6.9464,1.1738 43.7127,1.1511 51.0002,-0.031 z m 236.2209,16.9653 c -14.6069,-1.8917 -23.4161,-6.9621 -26.6056,-15.3136 -1.0395,-2.7221 -1.7306,-7.7257 -1.8286,-13.2394 l -0.1575,-8.8635 10,0 10,0 0.5776,6 c 1.405,14.5953 5.6083,15.8526 51.1859,15.3105 31.9098,-0.3795 34.1862,-0.7528 38.5686,-6.3242 2.9378,-3.7348 2.9017,-10.1116 -0.082,-14.4985 -4,-5.8809 -6.1908,-6.2023 -47.75,-7.0041 -34.5186,-0.666 -38.0333,-0.895 -44.2075,-2.8806 -8.6427,-2.7796 -13.0476,-6.8555 -15.1843,-14.0506 -3.4989,-11.7823 -1.2949,-26.0729 5.1157,-33.1686 7.4734,-8.2722 18.0655,-10.1912 56.7761,-10.2864 41.8799,-0.103 53.3128,2.607 61.1851,14.5029 2.2465,3.3947 2.6209,5.0752 2.7107,12.1691 l 0.1042,8.2305 -8.9825,0.2923 c -10.0283,0.3264 -11.4893,-0.4622 -11.5493,-6.2334 -0.087,-8.3193 -8.8974,-11.409 -34.9682,-12.2624 -16.75,-0.5483 -34.8739,0.6866 -42.1731,2.8735 -8.0334,2.4069 -11.6473,11.9748 -6.8341,18.0937 3.0674,3.8996 8.6351,4.5769 43.0072,5.2315 44.834,0.854 51.7422,2.0495 59.137,10.2347 5.0312,5.5689 6.2952,10.0069 6.2315,21.8798 -0.045,8.3634 -0.4424,10.9115 -2.3012,14.7512 -4.3488,8.9835 -11.5634,12.8068 -27.5673,14.6091 -10.5656,1.1899 -65.1102,1.1506 -74.4083,-0.053 z M 1720,1238.3974 c -19.2688,-3.3054 -26.8964,-7.8536 -31.3764,-18.7091 -2.6594,-6.4438 -3.747,-23.7945 -3.4281,-54.6883 l 0.3045,-29.5 9,0 9,0 0.6006,31.5 c 0.7143,37.4605 1.2595,41.2807 6.7432,47.2471 4.734,5.1508 11.88,6.998 29.1307,7.5305 31.2056,0.9632 45.9135,-4.0913 51.1156,-17.5661 2.0488,-5.3071 2.2476,-7.942 2.8074,-37.2115 l 0.6025,-31.5 9,0 9,0 0,51 0,51 -9,0 -9,0 -0.3023,-5.25 c -0.1662,-2.8875 -0.5617,-5.25 -0.8788,-5.25 -0.3171,0 -2.2901,1.5481 -4.3845,3.4403 -2.3162,2.0925 -6.4771,4.3113 -10.6212,5.6637 -6.1764,2.0156 -9.1032,2.2467 -31.3132,2.4729 -13.475,0.1371 -25.625,0.056 -27,-0.1795 z m 192.5,-0.8539 c -13.0298,-2.7374 -19.2556,-7.6491 -22.7975,-17.9851 -0.593,-1.7304 -1.2987,-17.1707 -1.6253,-35.5584 l -0.5772,-32.5 -12,-0.5 -12,-0.5 0,-7.5 0,-7.5 12,-0.5 12,-0.5 0.5,-12 0.5,-12 9,0 9,0 0.5,12 0.5,12 35.5,0.5 35.5,0.5 0,7.5 0,7.5 -35.5,0.5 -35.5,0.5 0,29 c 0,33.6242 0.093,34.0233 9.0168,38.5 4.6296,2.3226 6.0121,2.5 19.4832,2.5 12.7826,0 14.9104,-0.2411 17.9646,-2.0354 5.6571,-3.3234 7.2418,-7.181 7.9301,-19.3048 l 0.6053,-10.6598 9,0 9,0 -0.042,13 c -0.049,15.1496 -1.1013,19.5553 -6.0508,25.3376 -7.3658,8.6054 -16.4694,11.1214 -39.907,11.0293 -8.8,-0.035 -18.7,-0.6301 -22,-1.3234 z m 773,0 c -8.7859,-1.8482 -12.7931,-3.9319 -17.2082,-8.9477 -6.2554,-7.1064 -6.602,-9.2681 -7.2305,-45.0941 l -0.5613,-32 -12,-0.5 -12,-0.5 0,-7.5 0,-7.5 12,-0.5 12,-0.5 0.5,-12 0.5,-12 9.5,0 9.5,0 0.5,12 0.5,12 35.5,0.5 35.5,0.5 0,7.5 0,7.5 -35.5,0.5 -35.5,0.5 -0.2994,29 c -0.3317,32.1369 -0.2036,32.9217 6.0738,37.1966 4.5188,3.0773 10.6255,4.2515 22.2256,4.2734 11.2895,0.021 16.9272,-1.1748 20.3418,-4.3159 3.9017,-3.589 4.5315,-5.7049 5.1061,-17.1541 l 0.5521,-11 9,0 9,0 0.2829,11.881 c 0.3632,15.257 -1.1597,20.9693 -7.3567,27.5944 -7.3423,7.8495 -16.1197,10.0708 -39.2254,9.9266 -8.6354,-0.054 -18.4008,-0.6659 -21.7008,-1.3602 z m 318.1304,0.3978 c -23.7882,-2.7616 -33.5365,-10.3045 -38.3195,-29.65 -2.5977,-10.5071 -2.3247,-35.3582 0.4996,-45.4699 2.6178,-9.3727 6.5447,-15.7834 12.4125,-20.2638 10.1461,-7.7471 17.8047,-9.0676 52.277,-9.0136 35.8371,0.056 45.3935,1.9461 55.357,10.9475 7.8834,7.1221 11.6776,18.3743 12.3111,36.5102 l 0.3319,9.5 -57,0.5 -57,0.5 0.074,4.0863 c 0.2178,11.9891 6.448,20.8488 16.9258,24.0694 5.1891,1.595 9.5815,1.8443 32.5,1.8443 28.188,0 30.8318,-0.3526 38.2176,-5.0973 2.8445,-1.8273 4.0435,-3.5056 5.1048,-7.1455 l 1.3871,-4.7572 9.3953,0 9.3952,0 0.3104,4.31 c 0.8184,11.3629 -7.0758,22.0461 -19.2297,26.0232 -3.8056,1.2453 -10.1056,2.6784 -14,3.1846 -8.4807,1.1024 -51.2533,1.0476 -60.9503,-0.078 z m 73.0109,-64.4471 c 0.9196,-2.3966 -0.4938,-7.9779 -2.9394,-11.607 -5.1372,-7.623 -14.4032,-10.5529 -36.4889,-11.5377 -15.199,-0.6777 -31.6866,0.7164 -38.4206,3.2485 -7.4714,2.8095 -13.7924,11.6407 -13.7924,19.2697 l 0,2.134 45.5314,0 c 39.6509,0 45.6061,-0.1947 46.1099,-1.5075 z m 225.9891,64.4971 c -14.9327,-1.8422 -23.6284,-5.1542 -29.2752,-11.1503 -8.2584,-8.7693 -11.97,-24.0581 -11.0067,-45.3393 1.3391,-29.5843 10.1679,-41.9941 33.1515,-46.5979 9.0252,-1.8078 55.726,-1.887 66.2273,-0.1124 16.0127,2.7061 25.7277,9.2067 30.7581,20.5814 2.8779,6.5074 4.7537,18.6946 4.3294,28.1289 l -0.3148,7 -56.5,0.5 -56.5,0.5 -0.3201,2.254 c -0.5639,3.9715 1.823,12.85 4.6133,17.1591 3.4065,5.2608 10.0793,8.6292 20.1324,10.1627 11.4215,1.7423 51.2379,0.7085 57.2142,-1.4854 5.8377,-2.1431 9.9246,-6.1812 11.3318,-11.1966 l 1.0925,-3.8938 9.4679,0 9.468,0 0.3149,3.2708 c 0.4302,4.4682 -2.4668,14.0347 -5.4378,17.9569 -3.2866,4.3389 -10.3825,8.3465 -18.8744,10.6599 -5.9676,1.6257 -11.1413,1.9478 -35.0027,2.1786 -15.4,0.149 -31.0913,-0.1105 -34.8696,-0.5766 z m 73.0213,-64.5242 c 1.1217,-2.9233 -1.9258,-10.7395 -5.6325,-14.4462 -6.0126,-6.0126 -19.7794,-8.9599 -42.0454,-9.0014 -29.0133,-0.054 -40.5314,5.1567 -43.8278,19.8279 -0.5012,2.2306 -0.6641,4.3029 -0.362,4.605 0.3022,0.3021 20.9635,0.5493 45.9141,0.5493 39.8564,0 45.4362,-0.1863 45.9536,-1.5346 z m -1985.1783,63.3238 c -0.2716,-0.7091 -0.3767,-23.7892 -0.2336,-51.2892 l 0.2602,-50 9,0 9,0 0.3048,4.75 c 0.1676,2.6125 0.6517,4.75 1.0757,4.75 0.424,0 1.8064,-1.1023 3.0721,-2.4495 3.1575,-3.3611 9.2294,-6.0123 17.5474,-7.6621 9.1478,-1.8144 52.1777,-1.805 61.5,0.014 13.3534,2.6047 20.86,7.9399 25.105,17.8431 2.8195,6.5776 4.0334,25.5966 3.6864,57.755 l -0.2914,27 -9.5,0 -9.5,0 -0.5,-35 c -0.4703,-32.9239 -0.6228,-35.2341 -2.5704,-38.9467 -4.5294,-8.6342 -12.6993,-12.0629 -31.3647,-13.1629 -12.8924,-0.7597 -31.0378,0.9579 -39.5135,3.7403 -4.2835,1.4062 -7.6227,3.3713 -10.5577,6.213 -7.3756,7.1412 -7.371,7.1158 -7.9647,44.1563 l -0.529,33 -8.7664,0.2892 c -6.4488,0.2127 -8.8969,-0.052 -9.2602,-1 z m 443.0015,0 c -0.2707,-0.7091 -0.3759,-33.9142 -0.2336,-73.7892 l 0.2587,-72.5 9,0 9,0 0,73.5 0,73.5 -8.7664,0.2892 c -6.4494,0.2127 -8.8964,-0.052 -9.2587,-1 z m 161.9985,0 c -0.2716,-0.7091 -0.3767,-23.7892 -0.2336,-51.2892 l 0.2602,-50 9,0 9,0 0,51 0,51 -8.7664,0.2892 c -6.4488,0.2127 -8.8969,-0.052 -9.2602,-1 z m 38.9995,0 c -0.2713,-0.7082 -0.3762,-23.7877 -0.2331,-51.2877 l 0.2602,-50 9.5,0 9.5,0 0.3048,4.75 c 0.3291,5.1288 1.0412,5.8275 2.9023,2.8474 1.6484,-2.6395 10.6133,-6.6893 17.7929,-8.0378 9.3718,-1.7601 37.641,-2.4205 51.5,-1.203 16.53,1.4522 23.994,3.9745 29.98,10.1313 8.3503,8.5884 8.52,9.6741 8.52,54.5121 l 0,39 -9,0 -9,0 -0.5,-34.5 c -0.485,-33.4678 -0.5688,-34.6397 -2.8003,-39.1697 -4.3793,-8.8899 -12.0039,-12.2406 -30.568,-13.4335 -12.9866,-0.8345 -33.1347,1.0727 -40.5414,3.8376 -7.3697,2.7511 -12.5479,7.0324 -15.3269,12.6722 -2.1767,4.4175 -2.2825,5.8573 -2.7634,37.5934 l -0.5,33 -9.2669,0.2877 c -6.8508,0.2128 -9.3955,-0.048 -9.7602,-1 z m 397.6074,-3.0093 c -1.0301,-2.3531 -11.5946,-24.7351 -23.4766,-49.7377 -11.882,-25.0026 -21.6037,-46.2803 -21.6037,-47.2838 0,-1.6694 0.9036,-1.8004 10.6288,-1.5407 l 10.6287,0.2838 19.1213,41.2213 c 10.5166,22.6717 19.3462,41.2276 19.6212,41.2353 0.275,0.01 6.7579,-17.4169 14.4065,-38.7213 7.6485,-21.3044 14.5226,-39.9728 15.2756,-41.4853 l 1.3693,-2.75 13.9391,0 c 12.2627,0 14.0484,0.2105 14.8474,1.75 0.4996,0.9625 7.3282,19.3 15.1749,40.75 7.8466,21.45 14.5872,39.3609 14.979,39.8021 0.3918,0.4412 9.2943,-17.7838 19.7833,-40.5 l 19.0709,-41.3021 10.5953,-0.284 c 8.2833,-0.2221 10.7109,0.017 11.1249,1.0959 0.4886,1.2732 -45.2711,98.793 -47.3172,100.8391 -0.5002,0.5002 -6.8777,0.7833 -14.1724,0.6292 l -13.2629,-0.2802 -15.1509,-40.75 c -8.333,-22.4125 -15.4202,-40.75 -15.7492,-40.75 -0.3291,0 -7.3222,18.3375 -15.5402,40.75 l -14.9418,40.75 -13.7392,0.2784 -13.7392,0.2783 -1.8729,-4.2783 z m 174.3931,3.0108 c -0.2716,-0.7091 -0.3767,-23.7892 -0.2336,-51.2892 l 0.2602,-50 9,0 9,0 0,51 0,51 -8.7664,0.2892 c -6.4488,0.2127 -8.8969,-0.052 -9.2602,-1 z m 162.001,0 c -0.2705,-0.7082 -0.3754,-33.9127 -0.2331,-73.7877 l 0.2587,-72.5 9.5,0 9.5,0 0.2663,26.75 c 0.1465,14.7125 0.4388,26.75 0.6495,26.75 0.2108,0 2.6658,-1.5361 5.4556,-3.4134 7.7866,-5.2401 16.1282,-6.7545 40.1286,-7.2853 33.2496,-0.7354 47.6698,2.204 56.759,11.5698 7.3883,7.6131 7.741,10.0794 7.741,54.1289 l 0,38.5 -9,0 -9,0 -0.593,-34 c -0.3919,-22.4665 -1.0075,-35.2941 -1.8149,-37.8149 -0.6721,-2.0982 -2.9051,-5.4981 -4.9623,-7.5553 -5.3191,-5.3191 -12.3213,-7.1564 -29.904,-7.8468 -23.7971,-0.9343 -39.3202,2.1984 -47.5095,9.5878 -7.1187,6.4234 -7.1568,6.641 -7.7163,44.1292 l -0.5,33.5 -9.2669,0.2877 c -6.8514,0.2128 -9.3951,-0.048 -9.7587,-1 z m 346.999,0 c -0.2716,-0.7091 -0.3767,-23.7892 -0.2336,-51.2892 l 0.2602,-50 9,0 9,0 0.3048,4.75 c 0.1676,2.6125 0.5461,4.75 0.841,4.75 0.295,0 2.2971,-1.5072 4.4493,-3.3494 5.2572,-4.5 11.8133,-6.4418 26.2843,-7.7851 14.5973,-1.355 44.1942,-0.4692 53.9842,1.6158 11.5714,2.4644 18.751,7.9545 22.8219,17.4514 2.7118,6.3264 3.9429,26.1859 3.5998,58.0673 l -0.2853,26.5 -9.5,0 -9.5,0 -0.61,-34.5 c -0.3355,-18.975 -0.9656,-35.817 -1.4003,-37.4267 -1.1045,-4.0897 -8.2138,-10.8544 -12.9897,-12.36 -8.3282,-2.6255 -24.7548,-3.6531 -38.9383,-2.4358 -21.1482,1.8151 -30.7934,6.1843 -35.8119,16.2225 -2.1612,4.3227 -2.2695,5.7999 -2.7498,37.5 l -0.5,33 -8.7664,0.2892 c -6.4488,0.2127 -8.8969,-0.052 -9.2602,-1 z m 297.9995,0 c -0.2713,-0.7082 -0.3762,-23.7877 -0.2331,-51.2877 l 0.2602,-50 9.5,0 9.5,0 0.3104,3.75 c 0.1707,2.0625 0.5396,3.75 0.8198,3.75 0.2802,0 2.4745,-1.352 4.8763,-3.0045 7.639,-5.2557 14.3951,-6.4031 37.9935,-6.452 28.8329,-0.06 36.8137,2.1758 43.4307,12.1655 4.4528,6.7226 6.0321,13.1694 6.3192,25.7967 l 0.2501,10.9943 -9.5,0 -9.5,0 -0.5861,-8.5 c -0.7314,-10.6058 -2.2368,-15.2525 -5.9552,-18.3813 -5.1107,-4.3004 -9.2892,-5.1205 -25.9587,-5.0949 -26.118,0.04 -34.6787,3.651 -39.7416,16.7635 -1.3358,3.4594 -1.7278,10.1138 -2.1925,37.2127 l -0.5659,33 -9.2669,0.2877 c -6.8508,0.2128 -9.3955,-0.048 -9.7602,-1 z M 1995.4438,1110.7142 c -0.2879,-0.7503 -0.3931,-5.6055 -0.2336,-10.7892 l 0.2898,-9.425 9,0 9,0 0,10.5 0,10.5 -8.7664,0.2892 c -6.6865,0.2205 -8.8905,-0.034 -9.2898,-1.075 z m 611,0 c -0.2879,-0.7503 -0.3931,-5.6055 -0.2336,-10.7892 l 0.2898,-9.425 9,0 9,0 0,10.5 0,10.5 -8.7664,0.2892 c -6.6865,0.2205 -8.8905,-0.034 -9.2898,-1.075 z M 3385,1105.609 c 0,-0.3328 6.1355,-7.2434 13.6345,-15.357 C 3566.8704,908.2273 3680.4799,684.1294 3737.921,421 c 10.4275,-47.76693 16.4013,-85.63203 19.0105,-120.5 2.1389,-28.58246 0.8575,-86.63951 -1.988,-90.06803 -0.5525,-0.66577 -2.0033,-1.43583 -3.224,-1.71124 -1.2207,-0.27541 -8.2945,-1.92098 -15.7195,-3.65684 -99.3279,-23.22132 -247.397,-21.16555 -432.7692,6.00851 -213.64,31.3179 -486.3269,97.63257 -766.7308,186.46113 -33.6919,10.67318 -95.4742,30.90253 -100.75,32.98852 -1.0145,0.40112 -1.75,0.23735 -1.75,-0.38965 0,-2.82608 120.8361,-72.41365 199.5,-114.88887 60.4456,-32.6381 155.3358,-80.83852 212,-107.68756 217.3126,-102.96859 402.5361,-167.328721 545.4075,-189.514264 37.6181,-5.841461 60.572,-7.932852 95.5925,-8.7096975 75.7585,-1.6805189 133.3676,10.9626495 177.2949,38.9100215 31.6409,20.130547 54.1339,45.945925 70.6393,81.07318 8.9462,19.03979 17.1116,46.93511 20.8368,71.18479 l 1.229,8 15.6022,5.09388 c 75.1496,24.5351 119.8184,64.41117 135.8439,121.26836 5.1991,18.44614 6.3991,28.30334 6.4077,52.63776 0.01,17.894 -0.4126,24.70623 -2.245,36.5 -3.1756,20.43933 -7.9409,39.81524 -16.478,67 -64.4697,205.29126 -228.7129,407.02649 -488.0134,599.4128 C 3388.5556,1104.5555 3385,1106.9445 3385,1105.609 z M 628.5,984.52125 c -23.76886,-5.23688 -53.89626,-26.15886 -67.13272,-46.62034 -8.70003,-13.44886 -14.61614,-28.23057 -17.27868,-43.17165 -0.61298,-3.43975 -1.0674,-27.87772 -1.125,-60.5 -0.11654,-65.99516 -0.10791,-66.06229 11.44091,-89.02801 7.75188,-15.41519 17.57023,-27.01257 30.95476,-36.56357 9.42183,-6.72329 29.47706,-16.16431 41.20894,-19.39917 L 636.5,686.5 l 181.5,0 181.5,0 7.7806,2.25534 c 14.3441,4.15786 31.506,13.80184 44.5857,25.05449 12.9534,11.14394 18.5844,18.63515 26.6801,35.49366 10.0029,20.83003 11.6662,33.87885 11.2423,88.19651 l -0.2887,37 -236.5,0.5 -236.5,0.5 -0.31648,3.29182 c -0.17406,1.8105 0.44073,5.6355 1.3662,8.5 3.56233,11.02603 10.69244,18.93792 20.81582,23.09816 L 643.5,912.5 l 223,0.5 223,0.5 0,36 0,36 -227.5,0.1716 c -185.40167,0.13984 -228.61029,-0.073 -233.5,-1.15035 z m 386.2937,-190.11691 c 0.6791,-14.09296 -8.7458,-27.44231 -23.2937,-32.99297 -4.83699,-1.84553 -10.49295,-1.91676 -173.48147,-2.18483 -183.3151,-0.3015 -177.95184,-0.45009 -186.86574,5.17701 -5.32552,3.36185 -9.79935,9.044 -12.2279,15.53045 -2.14416,5.72687 -3.61908,16.81459 -2.59257,19.48963 0.55089,1.43558 18.9256,1.55804 199.38724,1.32884 L 1014.5,800.5 l 0.2937,-6.09566 z m 131.6619,188.34042 c -0.265,-0.69038 -0.3634,-17.22788 -0.2187,-36.75 L 1146.5,910.5 l 197,-0.5 c 167.0489,-0.42398 197.5321,-0.71592 200.5,-1.9202 12.4346,-5.04561 19.5538,-15.13006 20.1761,-28.5798 l 0.3239,-7 -209,-0.5 -209,-0.5 -0.2882,-39.5 c -0.3139,-43.01175 0.3789,-53.87326 4.3082,-67.54732 3.5015,-12.18555 12.9274,-31.23721 20.323,-41.07721 6.1463,-8.17779 16.1631,-17.69525 23.7552,-22.57098 7.7239,-4.96042 22.3506,-11.79846 31.1252,-14.55115 L 1234.5,683.5 l 202,0 202,0 0,36 0,36 -196,0.5 -196,0.5 -6,2.39086 c -3.9325,1.56702 -7.7747,4.15135 -11.1504,7.5 -6.1806,6.13117 -8.6685,13.10588 -8.7781,24.60914 l -0.072,7.5 209,0.5 209,0.5 0,48 c 0,54.28135 0.054,53.80586 -8.0474,71.22155 -10.0524,21.61055 -26.0654,40.21522 -42.9792,49.93525 -15.2998,8.79245 -26.1331,12.39917 -42.9734,14.30712 -14.2785,1.61771 -397.4205,1.40675 -398.0444,-0.21916 z M 3.4662087,981.77132 C 3.1981492,981.07209 3.0960915,894.54045 3.2394139,789.47878 L 3.5,598.45757 6.7400348,591.87631 c 4.6076252,-9.35915 6.6063422,-11.52201 14.1653272,-15.32865 12.981073,-6.53716 23.218589,-6.53193 36.22603,0.0185 7.576124,3.81527 10.287323,6.86718 15.066137,16.95943 L 75.5,600.5 l 0.5,41 0.5,41 165,0.50054 165,0.50054 7.85418,2.23519 c 23.23145,6.61136 45.15159,21.49713 57.83031,39.27204 9.8175,13.76362 19.01784,35.182 21.68889,50.49169 1.43411,8.21992 1.69431,116.30708 0.29626,123.06538 -5.19238,25.10042 -27.2386,56.12127 -48.87841,68.77597 -10.03964,5.87105 -22.30288,10.9218 -32.29123,13.29948 -7.04655,1.6774 -19.63879,1.80398 -208.27321,2.09357 C 43.011113,982.98267 3.8587767,982.79532 3.4662087,981.77132 z M 399.5,907.58302 c 10.16694,-3.89796 16.0436,-9.50999 19.85499,-18.96089 1.92906,-4.78339 2.08988,-7.53597 2.43183,-41.62213 0.46669,-46.52163 -0.60157,-65.73132 -4.07759,-73.32394 -2.9926,-6.53671 -10.08509,-12.60128 -17.93875,-15.33889 C 394.7412,756.58408 387.22332,756.5 235.5,756.5 l -159,0 -0.258562,75.5 c -0.142209,41.525 -0.04073,76.07059 0.225518,76.76799 0.388713,1.01819 31.763654,1.21519 159.258564,1 C 389.45401,909.50852 394.6589,909.43908 399.5,907.58302 z M 1787,982.31129 c -23.6883,-3.99915 -51.445,-20.74616 -67.641,-40.81129 -7.7417,-9.59114 -17.3425,-28.48825 -20.3221,-40 -1.1389,-4.4 -2.5094,-11.825 -3.0456,-16.5 -1.3478,-11.75179 -1.3267,-275.94553 0.023,-283.11351 1.2362,-6.56698 5.1949,-14.91593 9.277,-19.56516 6.5709,-7.48388 21.5902,-12.19969 32.4568,-10.19089 12.301,2.27397 21.8863,9.60795 27.1125,20.74452 l 2.6397,5.62504 0.5,40 0.5,40 58,0.5 58,0.5 0,36.5 0,36.5 -58,0.5 -58,0.5 0,62.5 0,62.5 2.3477,6.79849 c 2.7137,7.85856 11.062,17.80127 17.0458,20.30148 8.7357,3.65002 10.9498,3.75643 90.1065,4.33061 l 78.5,0.56942 0,36 0,36 -83.5,0.11667 c -45.925,0.0642 -84.625,-0.0733 -86,-0.30538 z m 394.4662,-0.53997 C 2181.1981,981.07209 2181.0961,894.55 2181.2394,789.5 l 0.2606,-191 3.2775,-6.70057 c 3.9839,-8.14474 7.6875,-11.99576 15.1682,-15.77203 8.3505,-4.21528 15.9653,-5.32725 24.3388,-3.55409 13.4279,2.84346 21.7958,9.83208 26.9726,22.52669 2.1651,5.30933 2.2602,6.92136 2.7429,46.5 l 0.5,41 165,0.5 165,0.5 8,2.25537 c 9.3372,2.63234 23.7214,9.35024 33.3311,15.56673 21.7455,14.0671 40.4504,43.99444 46.0495,73.6779 0.622,3.29739 1.1256,28.32704 1.2575,62.5 0.2505,64.87706 0.4323,63.05309 -8.0735,81 -6.9455,14.65477 -13.1048,23.50717 -23.9275,34.3896 -13.8617,13.93815 -30.0997,22.92064 -50.1371,27.73468 -7.0736,1.69946 -18.914,1.81942 -208.2732,2.11012 -161.7157,0.24827 -200.868,0.0609 -201.2606,-0.96308 z m 391.9041,-73.26162 c 11.2956,-2.39316 19.0167,-8.61373 23.9528,-19.29794 2.1228,-4.59459 2.1849,-5.8872 2.4966,-51.97836 0.4003,-59.18158 -0.1615,-62.98539 -10.7107,-72.51597 -2.116,-1.91171 -6.4937,-4.54269 -9.7282,-5.84663 L 2573.5,756.5 l -159.5,0 -159.5,0 -0.2586,75.5 c -0.1422,41.525 -0.044,76.0625 0.2187,76.75 0.3789,0.99271 32.5417,1.24643 156.2585,1.23264 132.4983,-0.0148 156.8082,-0.23492 162.6517,-1.47294 z m 162.3088,73.83607 C 2735.3056,981.97226 2735,896.32334 2735,792.01483 c 0,-210.82377 -0.5609,-194.19535 6.9421,-205.80398 3.3883,-5.24228 4.971,-6.64556 10.8151,-9.58856 13.1357,-6.61504 23.3187,-6.63075 36.3742,-0.0561 7.5761,3.81527 10.2873,6.86718 15.0661,16.95943 l 3.3025,6.9744 0,191 0,191 -35.5709,0.26244 c -19.564,0.14434 -35.8765,-0.0432 -36.25,-0.41667 z M 2955,981.48393 c -24.6654,-5.03983 -55.1472,-25.73656 -68.653,-46.61438 -6.6506,-10.28079 -13.0691,-24.43637 -16.1383,-35.5922 l -2.69,-9.77735 -0.01,-90.5 -0.01,-90.5 3.1026,-6.54737 c 4.0855,-8.62139 8.4767,-13.45908 15.3802,-16.94395 11.7852,-5.94913 23.195,-5.99681 34.7061,-0.14503 7.6697,3.89902 11.6425,7.98494 15.5715,16.01518 l 3.2396,6.62117 0.5133,86 c 0.4655,77.97554 0.6744,86.47434 2.2394,91.08364 3.324,9.79034 10.9922,18.38512 19.3244,21.65958 9.1617,3.60038 16.7563,3.75678 182.4299,3.75678 172.0947,0 171.251,0.0207 179.8134,-4.40711 5.1236,-2.64953 11.7239,-10.8186 14.2381,-17.62224 l 2.3911,-6.47065 0.5252,-87 c 0.5196,-86.07568 0.5478,-87.04781 2.6499,-91.5 4.0307,-8.53693 7.8632,-12.64852 15.0783,-16.17649 6.4994,-3.17795 7.3006,-3.32349 18.297,-3.3235 11.1933,-10e-6 11.6681,0.0911 17.8014,3.4167 7.629,4.1366 10.4183,7.29065 15.1073,17.08329 l 3.5913,7.5 0,89.5 c 0,82.15781 -0.145,90.09661 -1.7671,96.77262 -6.204,25.53281 -19.937,47.20883 -38.7184,61.11289 -9.158,6.77973 -25.6556,15.28231 -35.9816,18.54428 -18.5309,5.85392 -8.4829,5.57865 -199.8934,5.47624 -141.8041,-0.0759 -176.8917,-0.34982 -182.1395,-1.4221 z M 1957.4578,824.75075 c -0.2661,-0.69367 -0.3656,-17.23387 -0.2209,-36.75599 L 1957.5,752.5 l 80,0 80,0 0,36.5 0,36.5 -79.7791,0.25599 c -63.4678,0.20365 -79.878,-0.002 -80.2631,-1.00524 z"
       id="path3031"
       inkscape:connector-curvature="0" />
    <path
       style="fill:#feb202"
       d="m 2445,1682.201 c 0,-0.5644 3.2625,-2.2469 7.25,-3.739 17.2066,-6.4386 76.3796,-30.2183 100.7338,-40.4816 197.3934,-83.1856 395.5463,-186.7635 558.5162,-291.9462 27.2498,-17.5873 79.0309,-52.5256 99.7455,-67.3012 18.6628,-13.3121 21.7545,-15.3031 21.7545,-14.0093 0,0.868 -35.477,36.2219 -51.5159,51.3372 -66.4029,62.5791 -149.9824,125.5343 -234.4841,176.6219 -142.4911,86.1467 -314.7716,154.0062 -467.9356,184.3151 -29.9059,5.9179 -34.0644,6.5531 -34.0644,5.2031 z m -215.0715,-408.1766 c -6.3643,-0.4329 -13.1143,-1.0969 -15,-1.4757 -18.2076,-3.6569 -28.2374,-12.6334 -29.1051,-26.0487 l -0.3234,-5 7.8448,-0.2938 c 8.5844,-0.3214 10.1123,0.3292 10.9818,4.6766 0.8095,4.0478 5.0192,8.6383 9.6039,10.4727 9.2296,3.693 48.1509,4.595 64.8744,1.5035 14.6285,-2.7042 19.7438,-9.1725 20.8752,-26.397 0.6278,-9.5579 0.045,-11.2459 -2.7279,-7.9044 -2.7189,3.2761 -10.1896,6.6517 -17.6739,7.986 -9.3617,1.6689 -45.0119,1.9352 -57.0471,0.4262 -22.9041,-2.872 -32.5905,-10.7913 -37.316,-30.5083 -1.8108,-7.5555 -2.0618,-10.8442 -1.6,-20.9615 0.7487,-16.4043 3.8039,-25.495 11.0497,-32.8789 9.5491,-9.7309 18.6526,-12.2353 48.1351,-13.2419 30.5964,-1.0447 46.4766,1.6641 54.0282,9.2157 1.8728,1.8728 3.6216,3.4051 3.8862,3.4051 0.2646,0 0.6171,-2.3625 0.7833,-5.25 l 0.3023,-5.25 8,0 8,0 -0.03,50.5 c -0.026,43.9124 -0.2517,51.4681 -1.732,57.9217 -3.9633,17.2783 -13.7293,25.4405 -33.473,27.976 -11.2435,1.4438 -38.9149,2.0395 -52.3369,1.1267 z M 2284,1215.6138 c 5.9064,-2.2463 10.2099,-6.0728 13.0614,-11.6138 1.9738,-3.8354 2.38,-6.4066 2.7505,-17.4104 0.5406,-16.0603 -0.6939,-22.3463 -5.4147,-27.5717 -6.6473,-7.3578 -17.9085,-10.0121 -42.3972,-9.993 -23.8236,0.019 -36.6464,2.3706 -42.3274,7.7639 -6.8985,6.5492 -9.8922,19.7509 -7.9565,35.0864 1.5958,12.6423 4.9736,18.4583 13.1103,22.573 5.9191,2.9933 11.2276,3.4316 38.1736,3.152 22.123,-0.2296 27.2433,-0.5577 31,-1.9864 z m 1304.5,58.6945 c -26.6485,-1.1421 -40.5022,-6.4816 -46.0064,-17.7319 -1.5963,-3.2627 -2.7245,-7.357 -2.8255,-10.2539 l -0.1681,-4.8225 8.4956,0 8.4957,0 1.308,3.9927 c 2.8745,8.7739 9.011,12.0697 25.4032,13.6435 12.2513,1.1762 40.2276,0.4558 49.6024,-1.2772 9.8604,-1.8228 15.6241,-5.8548 18.6204,-13.026 1.5886,-3.8021 3.392,-22.833 2.1637,-22.833 -0.3885,0 -2.4228,1.3794 -4.5207,3.0654 -7.3696,5.9223 -13.8876,7.1978 -39.3486,7.7001 -34.9256,0.689 -49.9543,-1.8187 -59.0889,-9.8593 -6.0001,-5.2815 -8.9873,-10.4872 -11.6927,-20.3767 -1.9026,-6.9552 -2.1159,-9.694 -1.6744,-21.5 0.5655,-15.1192 2.3621,-21.9218 8.0106,-30.3324 3.6974,-5.5053 11.4642,-10.6884 19.606,-13.0838 13.4036,-3.9434 58.316,-4.6471 71.6197,-1.1221 3.3,0.8744 8.3556,3.1466 11.2346,5.0493 2.8791,1.9027 5.4407,3.4595 5.6925,3.4595 0.2519,0 0.5963,-1.9125 0.7654,-4.25 l 0.3075,-4.25 8.5,0 8.5,0 0.288,42 c 0.4032,58.7849 -1.1844,72.7617 -9.3478,82.2989 -7.563,8.8356 -16.7164,11.8398 -40.2815,13.2208 -15.1931,0.8903 -18.8802,0.9219 -33.6587,0.2886 z m 43.0346,-57.3993 c 10.3085,-1.9057 16.6471,-6.4518 20.09,-14.409 2.1604,-4.9929 3.1575,-27.8945 1.4848,-34.099 -2.3007,-8.5335 -8.025,-14.0774 -17.521,-16.9689 -6.8041,-2.0718 -35.8592,-3.0067 -49.5932,-1.5957 -17.4002,1.7877 -23.4732,5.1385 -28.1744,15.5453 -2.0482,4.5342 -2.3126,6.6589 -2.3164,18.6183 0,11.9849 0.2541,14.0611 2.2992,18.5 4.0047,8.6921 9.4078,13.017 18.0994,14.4872 7.133,1.2065 49,1.1477 55.6316,-0.078 z m 69.88,53.729 c -0.2875,-0.7491 -0.3858,-4.0116 -0.2186,-7.25 l 0.304,-5.888 11.1785,-0.6489 c 6.1482,-0.3568 12.8243,-1.192 14.8358,-1.8558 4.2895,-1.4157 9.6842,-5.9169 13.6573,-11.3953 3.1174,-4.2985 3.5983,-6.6 1.3793,-6.6 -2.3419,0 -4.95,-4.1713 -33.0362,-52.8362 -16.9892,-29.4371 -26.394,-46.6845 -25.7873,-47.2912 0.5253,-0.5253 4.9442,-0.824 9.8197,-0.6638 l 8.8646,0.2912 24.5441,43 c 13.4993,23.65 24.9942,42.9253 25.5442,42.834 0.55,-0.091 10.8278,-18.7662 22.8396,-41.5 12.0118,-22.7337 22.5441,-42.1215 23.405,-43.084 2.0763,-2.3212 17.9914,-2.6015 18.8622,-0.3322 0.6345,1.6535 -53.0151,101.8318 -60.3806,112.747 -8.4218,12.4806 -15.704,17.7686 -28.0822,20.3922 -8.9171,1.8901 -27.0149,1.9429 -27.7294,0.081 z M 1128.5,1236.8608 c -16.077,-2.0353 -24.4785,-6.1848 -30.425,-15.0267 -5.9248,-8.8097 -8.3373,-19.251 -8.2796,-35.8341 0.1097,-31.5256 9.9102,-45.6422 34.7046,-49.9881 10.1125,-1.7725 35.1474,-2.3309 50.263,-1.1211 22.6563,1.8134 33.1768,6.0313 38.7457,15.5339 2.6546,4.5296 5.9782,17.8641 5.0534,20.2741 -0.4053,1.0562 -2.4761,1.314 -8.7713,1.0919 l -8.2407,-0.2907 -0.7394,-4.3465 c -1.1672,-6.8615 -3.7232,-10.3491 -9.8211,-13.4008 -7.3508,-3.6786 -22.1749,-5.1869 -43.4896,-4.4248 -23.3923,0.8364 -30.4119,3.5078 -36,13.7002 l -3,5.4719 0,17 c 0,16.3219 0.1062,17.2266 2.6629,22.6807 3.2569,6.9476 8.6779,11.1801 16.6602,13.0074 7.825,1.7913 54.0072,1.8188 59.8814,0.036 4.5681,-1.3867 9.6591,-5.1844 11.5038,-8.5816 0.6398,-1.1781 1.675,-4.3921 2.3004,-7.1421 l 1.1371,-5 8.3247,-0.2928 8.3247,-0.2929 -0.5727,7.5725 c -1.2537,16.5756 -10.5228,25.6809 -29.6086,29.0853 -8.6787,1.548 -49.144,1.7408 -60.6139,0.2887 z m 146.4181,0.1618 c -16.6231,-2.0831 -27.9579,-8.11 -33.0843,-17.5914 -4.8721,-9.0112 -6.2429,-16.3662 -6.2306,-33.4312 0.01,-13.3301 0.3338,-16.5474 2.3153,-22.9816 4.7666,-15.4773 13.2109,-23.1609 29.1858,-26.5567 16.1476,-3.4325 61.4514,-2.7942 76.4284,1.0769 12.9084,3.3365 21.8444,12.6324 25.5781,26.6085 2.9322,10.9757 2.8681,33.4438 -0.1263,44.2537 -4.3416,15.6733 -11.3022,22.7933 -26.5124,27.1194 -4.8117,1.3686 -11.3155,1.7597 -33.4721,2.013 -15.125,0.1728 -30.4619,-0.057 -34.0819,-0.5106 z m 62.8235,-16.9267 c 6.0893,-2.7126 11.4363,-8.1904 13.3877,-13.7152 0.9488,-2.6861 1.3707,-8.96 1.3707,-20.3807 0,-15.7779 -0.1165,-16.7485 -2.6613,-22.1771 -5.13,-10.9434 -12.5799,-13.6523 -39.8387,-14.486 -34.4623,-1.0541 -47.1551,2.2851 -53.1534,13.9832 -2.9542,5.7614 -4.2896,19.7752 -3.0284,31.7785 1.3793,13.1274 4.4838,19.1042 12.072,23.2414 7.5227,4.1015 11.6959,4.5439 40.6098,4.3054 24.8367,-0.205 26.2345,-0.319 31.2416,-2.5495 z m 229.4513,16.8316 c -14.3437,-1.8622 -23.291,-6.3998 -26.6732,-13.5271 -2.042,-4.3033 -4.1815,-18.2334 -3.1952,-20.8037 0.546,-1.4227 1.9634,-1.6315 9.4091,-1.3859 l 8.7664,0.2892 0.5,6.0478 c 0.5973,7.2244 2.8331,11.0191 7.8278,13.2857 3.2094,1.4565 8.2096,1.6665 39.6722,1.6665 39.4283,0 39.6228,-0.027 44.4117,-6.1149 2.8181,-3.5826 2.8492,-11.6248 0.063,-16.1953 -3.8061,-6.2426 -5.4016,-6.4892 -46.9744,-7.259 -39.8453,-0.7379 -43.1173,-1.1271 -52.2589,-6.2164 -4.5483,-2.5321 -6.0728,-4.7248 -8.1511,-11.7234 -4.3719,-14.7218 1.409,-30.9515 12.6372,-35.4782 15.5131,-6.2541 70.8415,-7.2492 91.0771,-1.638 13.5628,3.7608 19.7663,10.8419 20.0414,22.8764 l 0.1543,6.7488 -8.4626,0 -8.4625,0 -0.7373,-3 c -0.4055,-1.65 -0.9795,-4.1823 -1.2757,-5.6273 -1.2836,-6.2636 -10.2887,-8.7498 -34.5619,-9.5422 -21.0822,-0.6883 -40.5441,0.7777 -45.9355,3.4602 -10.0991,5.0248 -10.1175,19.4698 -0.029,22.8217 1.9856,0.6597 16.5983,1.3885 35.9064,1.7908 17.907,0.3731 36.1582,1.1465 40.5582,1.7185 19.5331,2.5396 27.1256,11.0998 26.7929,30.2082 -0.1094,6.2784 -0.6668,8.9139 -2.8131,13.301 -4.2997,8.7882 -11.4986,12.4808 -27.8966,14.3093 -10.9166,1.2173 -60.9862,1.2083 -70.3903,-0.013 z m 151.9228,0 c -23.0975,-4.0593 -29.9619,-11.1968 -32.145,-33.4241 -0.5942,-6.05 -0.9432,-23.6 -0.7756,-39 l 0.3049,-28 8,0 8,0 0.6023,32.5 c 0.788,42.5169 1.5905,45.3677 14.3977,51.1503 4.4444,2.0067 6.9881,2.3032 22.8911,2.6681 32.2982,0.741 45.3522,-3.5007 51.4301,-16.7114 2.5579,-5.5598 2.5842,-5.8764 3.1292,-37.607 l 0.5496,-32 8,0 8,0 0,50 0,50 -8,0 -8,0 -0.2977,-6.25 c -0.1638,-3.4375 -0.5476,-6.25 -0.8531,-6.25 -0.3054,0 -2.7156,1.9423 -5.3559,4.3161 -3.4705,3.1203 -6.836,4.9616 -12.1469,6.6456 -6.6332,2.1034 -9.5307,2.3576 -29.8464,2.6191 -12.375,0.1592 -24.9229,-0.1363 -27.8843,-0.6567 z m 194.7656,-0.4308 c -12.166,-2.4239 -19.6574,-8.0223 -22.5573,-16.8571 -1.3801,-4.2048 -1.789,-10.9391 -2.2549,-37.1362 l -0.5691,-32 -12,-0.5 -12,-0.5 0,-6.5 0,-6.5 12,-0.5 12,-0.5 0.5,-12 0.5,-12 8,0 8,0 0.5,12 0.5,12 35.5,0.5 35.5,0.5 0,6.5 0,6.5 -35.5,0.5 -35.5,0.5 0,30 c 0,34.2697 0.1077,34.767 8.5511,39.4869 4.0898,2.2863 5.6595,2.5134 19.4489,2.8144 14.0677,0.3071 15.2783,0.1836 19.4771,-1.9869 6.6692,-3.4475 8.3331,-7.1089 8.982,-19.7648 l 0.5409,-10.5496 8,0 8,0 0.3305,8 c 0.9422,22.8071 -6.4344,34.1726 -24.6459,37.9733 -9.0071,1.8798 -31.9135,1.8909 -41.3033,0.02 z m 773,0 c -8.4958,-1.6927 -13.9069,-4.4878 -17.7767,-9.1826 -5.9505,-7.2189 -6.4699,-10.5501 -7.0652,-45.3107 l -0.5394,-31.5 -12,-0.5 -12,-0.5 0,-6.5 0,-6.5 12,-0.5 12,-0.5 0.5,-12 0.5,-12 8.5,0 8.5,0 0.5,12 0.5,12 35.5,0.5 35.5,0.5 0,6.5 0,6.5 -35.5,0.5 -35.5,0.5 -0.2647,30.2712 c -0.3017,34.5063 -0.3375,34.3209 7.5203,38.9399 4.6794,2.7507 4.9729,2.7889 21.4196,2.7889 15.2817,0 16.9061,-0.1723 19.4382,-2.0618 5.9548,-4.4435 6.8477,-6.7113 7.3866,-18.7592 l 0.5,-11.179 8,0 8,0 0.3093,10 c 0.4094,13.2411 -1.5565,20.7952 -7.0304,27.0138 -4.4987,5.1108 -8.1826,6.9526 -18.0943,9.0465 -8.4915,1.7938 -31.6549,1.7558 -40.8033,-0.067 z m 318.3656,0.4559 c -23.658,-2.9228 -33.4724,-10.2022 -38.3565,-28.4492 -3.0949,-11.5628 -3.1031,-32.7739 -0.017,-43.8754 3.5349,-12.7158 9.0503,-20.0371 18.8377,-25.0056 12.4924,-6.3417 64.2233,-7.4679 84.3289,-1.836 17.4513,4.8884 25.5618,17.3313 26.6978,40.9587 l 0.5404,11.2417 -56.8891,0.2583 -56.8891,0.2583 0.086,6 c 0.1088,7.6042 1.8095,12.7418 5.6753,17.1447 7.1415,8.1337 15.386,9.6631 49.5639,9.194 24.28,-0.3333 24.7656,-0.3812 30.3402,-2.9946 6.0083,-2.8167 8.6823,-5.864 9.7571,-11.1191 l 0.6596,-3.225 8.459,0 8.459,0 -0.059,4.6857 c -0.039,3.129 -1.0434,6.6174 -3.0225,10.5 -3.7506,7.3581 -9.2904,11.2257 -20.5831,14.3699 -7.6031,2.1169 -10.6205,2.3414 -34.3356,2.5552 -14.3,0.129 -29.2639,-0.1688 -33.2531,-0.6616 z m 72.5579,-65.643 c 0.7048,-9.7001 -6.9004,-17.4722 -19.8048,-20.2391 -8.3307,-1.7862 -35.074,-2.4886 -46.5711,-1.2231 -14.3924,1.5842 -21.1384,4.9287 -25.0509,12.4197 -1.6328,3.1261 -3.4557,11.8015 -2.7275,12.9799 0.2639,0.4268 21.4879,0.6592 47.1646,0.5162 l 46.6849,-0.2598 0.3048,-4.1938 z m 226.4421,65.643 c -26.6374,-3.2908 -35.6774,-11.2247 -39.8222,-34.9492 -2.9934,-17.1337 -0.453,-38.4505 5.8675,-49.2357 7.6304,-13.0202 19.1833,-17.3949 48.7078,-18.4442 29.3116,-1.0417 51.4982,2.0106 61.1781,8.4165 4.4568,2.9493 9.7912,9.9401 12.0791,15.8298 2.11,5.4315 3.958,18.6258 3.5624,25.4336 l -0.3196,5.5 -56.5,0.5 -56.5,0.5 0.1346,7.2166 c 0.2578,13.8211 7.6594,21.8278 22.3873,24.2173 8.1565,1.3233 47.4898,1.3801 55.429,0.08 3.2965,-0.5398 7.98,-2.2217 10.5,-3.7706 3.7108,-2.2809 4.8541,-3.7128 6.2041,-7.7698 l 1.655,-4.9735 8.1107,-0.2907 c 9.7386,-0.349 10.1451,0.1362 7.6459,9.1268 -2.3103,8.3114 -4.7226,11.9138 -10.4309,15.5768 -9.3673,6.011 -17.4559,7.3382 -46.6357,7.6524 -14.3,0.154 -29.2639,-0.1233 -33.2531,-0.6161 z m 72.5919,-64.4311 c 0.9117,-8.0243 -4.7604,-16.2226 -13.4811,-19.4855 -13.7438,-5.1422 -54.9289,-5.3983 -67.0398,-0.4169 -4.7649,1.9599 -8.9671,5.8303 -11.2743,10.3843 -2.0484,4.0432 -3.4217,10.5792 -2.527,12.0269 0.3957,0.6402 17.1934,0.9005 47.2985,0.7329 l 46.6849,-0.2598 0.3388,-2.9819 z m -1985.3642,63.2742 c -0.2724,-0.7107 -0.3781,-23.3423 -0.2349,-50.2923 l 0.2603,-49 8,0 8,0 0.2977,6.25 c 0.1638,3.4375 0.6416,6.25 1.062,6.25 0.4203,0 1.7478,-1.3305 2.9501,-2.9566 3.1913,-4.3165 9.7496,-7.7679 18.0974,-9.5239 10.2724,-2.1608 34.207,-2.9679 49.1763,-1.6582 22.0481,1.929 30.2155,5.8955 35.879,17.4243 2.6779,5.4512 3.1798,7.8724 4.087,19.7144 0.5688,7.425 0.9028,24.975 0.7423,39 l -0.2918,25.5 -8.5,0 -8.5,0 -0.5,-35.5 c -0.5455,-38.7313 -0.4852,-38.331 -6.6607,-44.197 -3.9992,-3.7986 -8.7508,-5.5415 -18.4106,-6.7527 -16.1314,-2.0227 -40.5118,-0.6203 -50.5498,2.9078 -6.6183,2.3261 -12.3553,6.8993 -15.4646,12.3273 -2.3889,4.1702 -2.4196,4.5672 -2.9143,37.7146 l -0.5,33.5 -7.7651,0.2923 c -5.6444,0.2125 -7.9004,-0.061 -8.2603,-1 z m 443.0015,0 c -0.2715,-0.7107 -0.3772,-33.4673 -0.2348,-72.7923 l 0.2587,-71.5 8,0 8,0 0,72.5 0,72.5 -7.7651,0.2923 c -5.645,0.2126 -7.8999,-0.061 -8.2588,-1 z m 161.9985,0 c -0.2724,-0.7107 -0.3781,-23.3423 -0.2349,-50.2923 l 0.2603,-49 8,0 8,0 0,50 0,50 -7.7651,0.2923 c -5.6444,0.2125 -7.9004,-0.061 -8.2603,-1 z m 38.9993,0 c -0.272,-0.7099 -0.3774,-23.3407 -0.2342,-50.2907 l 0.2603,-49 8.5,0 8.5,0 0.2999,5.75 c 0.165,3.1625 0.6531,5.75 1.0847,5.75 0.4316,0 2.0275,-1.3947 3.5464,-3.0994 3.4355,-3.8558 11.0634,-7.3761 19.569,-9.0311 8.1464,-1.5851 49.2918,-1.6816 57,-0.1337 15.0733,3.027 22.9645,8.5667 27.1931,19.09 2.233,5.557 2.2804,6.4594 2.2935,43.6742 l 0.013,38 -8,0 -8,0 -0.5,-35 c -0.486,-34.0205 -0.5637,-35.1193 -2.7772,-39.2634 -2.9114,-5.4509 -8.9124,-9.7872 -15.5234,-11.2173 -14.5237,-3.1416 -47.7675,-1.9341 -58.021,2.1075 -6.7056,2.6431 -12.2668,7.1902 -14.9662,12.2372 -2.1236,3.9703 -2.2322,5.4778 -2.7122,37.636 l -0.5,33.5 -8.2658,0.2907 c -6.0467,0.2127 -8.3985,-0.056 -8.7603,-1 z m 399.0976,-1.0412 c -3.083,-4.7053 -46.4711,-97.103 -45.9747,-97.9061 0.2867,-0.4639 4.2987,-0.8434 8.9155,-0.8434 7.5593,0 8.5553,0.2238 10.012,2.25 0.8897,1.2375 9.8781,20.025 19.9742,41.75 10.418,22.4176 18.9204,39.5 19.6604,39.5 0.8095,0 7.0008,-15.7351 16.3292,-41.5 l 15.0252,-41.5 13.4161,0 13.4161,0 15.5178,42.2698 c 8.5348,23.2484 15.9208,42.1355 16.4133,41.9713 0.4924,-0.1641 9.3714,-18.6469 19.7309,-41.0727 10.3596,-22.4259 19.376,-41.4255 20.0365,-42.2214 1.6579,-1.9976 17.7769,-2.0773 18.5389,-0.092 0.2861,0.7455 -9.9695,23.358 -22.7901,50.25 l -23.3101,48.8946 -11.9082,0.2832 c -7.5783,0.1802 -12.302,-0.1103 -12.9913,-0.7988 -0.5958,-0.5951 -7.9016,-19.3975 -16.2351,-41.7832 -9.0971,-24.4367 -15.6621,-40.7012 -16.4286,-40.7012 -0.7692,0 -7.104,15.8512 -15.9358,39.8753 -8.0625,21.9314 -15.186,40.7189 -15.8299,41.75 -1.0341,1.6559 -2.5093,1.8747 -12.6392,1.8747 -10.7905,0 -11.5557,-0.133 -12.9431,-2.2505 z m 172.9031,1.0428 c -0.2724,-0.7107 -0.3781,-23.3423 -0.2349,-50.2923 l 0.2603,-49 8,0 8,0 0,50 0,50 -7.7651,0.2923 c -5.6444,0.2125 -7.9004,-0.061 -8.2603,-1 z m 162.0009,0 c -0.2712,-0.7099 -0.3766,-33.4657 -0.2342,-72.7907 l 0.2587,-71.5 8.5,0 8.5,0 0.2656,28.25 c 0.1719,18.2855 0.6238,28.25 1.2814,28.25 0.5587,0 1.2808,-0.6906 1.6047,-1.5347 1.1276,-2.9384 9.3663,-7.552 17.0818,-9.5656 15.4826,-4.0408 54.7243,-3.6153 68.7665,0.7456 6.4176,1.993 13.5296,6.7246 16.3965,10.9086 5.2185,7.616 5.4922,10.1039 5.5499,50.4461 l 0.054,37.5 -8,0 -8,0 -0.5063,-34.5 c -0.4739,-32.2943 -0.64,-34.7898 -2.5978,-39.033 -4.7057,-10.199 -11.7756,-12.9501 -35.22,-13.7051 -26.4095,-0.8505 -40.6988,2.0774 -49.0112,10.0422 -6.7302,6.4488 -6.614,5.7481 -7.1647,43.1959 l -0.5,34 -8.2658,0.2907 c -6.0472,0.2127 -8.398,-0.056 -8.7587,-1 z m 346.9991,0 c -0.2724,-0.7107 -0.3781,-23.3423 -0.2349,-50.2923 l 0.2603,-49 8,0 8,0 0.2977,6.25 c 0.1638,3.4375 0.6416,6.25 1.062,6.25 0.4203,0 1.7478,-1.3305 2.9501,-2.9566 3.1377,-4.2439 9.915,-7.8777 17.8266,-9.5581 9.6365,-2.0467 35.6095,-2.8982 49.6617,-1.6281 21.7179,1.9629 30.0551,6.0202 35.6256,17.3372 2.7723,5.6323 3.2128,7.8005 4.1257,20.3056 0.5621,7.7 0.8935,25.25 0.7363,39 l -0.2857,25 -8.5,0 -8.5,0 -0.5,-35 c -0.5459,-38.2161 -0.6791,-39.1139 -6.6268,-44.697 -4.0551,-3.8064 -8.7995,-5.5433 -18.4445,-6.7527 -16.1314,-2.0227 -40.5118,-0.6203 -50.5498,2.9078 -6.6395,2.3336 -12.9742,7.3865 -15.7236,12.5419 -2.0219,3.7912 -2.1599,5.7486 -2.6443,37.5 l -0.511,33.5 -7.7651,0.2923 c -5.6444,0.2125 -7.9004,-0.061 -8.2603,-1 z m 297.9993,0 c -0.272,-0.7099 -0.3774,-23.3407 -0.2342,-50.2907 l 0.2603,-49 8.5,0 8.5,0 0.3023,5.25 c 0.2898,5.035 1.6432,6.8586 2.818,3.7972 0.9634,-2.5108 9.6808,-7.4061 16.413,-9.217 5.0958,-1.3707 10.6006,-1.7408 25.9667,-1.7458 27.1305,-0.01 35.0905,2.347 41.826,12.3785 4.144,6.1719 6.0763,13.7298 6.4011,25.0371 l 0.2729,9.5 -8.5,0 -8.5,0 -0.6244,-9.5568 c -0.8271,-12.659 -2.701,-16.2037 -10.8756,-20.5726 -3.0635,-1.6373 -5.8073,-1.8672 -22,-1.8431 -26.4833,0.039 -33.6741,2.5758 -39.4817,13.9267 l -3.0183,5.8992 -0.5,33.5733 -0.5,33.5733 -8.2658,0.2907 c -6.0467,0.2127 -8.3985,-0.056 -8.7603,-1 z m -1418.0322,-126.082 c -0.2904,-0.7567 -0.3961,-5.1633 -0.2348,-9.7923 l 0.2931,-8.4164 8,0 8,0 0,9.5 0,9.5 -7.7651,0.2923 c -5.875,0.2212 -7.8937,-0.043 -8.2932,-1.0836 z m 611,0 c -0.2904,-0.7567 -0.3961,-5.1633 -0.2348,-9.7923 l 0.2931,-8.4164 8,0 8,0 0,9.5 0,9.5 -7.7651,0.2923 c -5.875,0.2212 -7.8937,-0.043 -8.2932,-1.0836 z M 3385,1105.609 c 0,-0.3328 6.1355,-7.2434 13.6345,-15.357 C 3566.8704,908.2273 3680.4799,684.1294 3737.921,421 c 10.4275,-47.76693 16.4013,-85.63203 19.0105,-120.5 2.1389,-28.58246 0.8575,-86.63951 -1.988,-90.06803 -0.5525,-0.66577 -2.0033,-1.43583 -3.224,-1.71124 -1.2207,-0.27541 -8.2945,-1.92098 -15.7195,-3.65684 -99.3279,-23.22132 -247.397,-21.16555 -432.7692,6.00851 -213.64,31.3179 -486.3269,97.63257 -766.7308,186.46113 -33.6919,10.67318 -95.4742,30.90253 -100.75,32.98852 -1.0145,0.40112 -1.75,0.23735 -1.75,-0.38965 0,-2.82608 120.8361,-72.41365 199.5,-114.88887 60.4456,-32.6381 155.3358,-80.83852 212,-107.68756 217.3126,-102.96859 402.5361,-167.328721 545.4075,-189.514264 37.6181,-5.841461 60.572,-7.932852 95.5925,-8.7096975 75.7585,-1.6805189 133.3676,10.9626495 177.2949,38.9100215 31.6409,20.130547 54.1339,45.945925 70.6393,81.07318 8.9462,19.03979 17.1116,46.93511 20.8368,71.18479 l 1.229,8 15.6022,5.09388 c 75.1496,24.5351 119.8184,64.41117 135.8439,121.26836 5.1991,18.44614 6.3991,28.30334 6.4077,52.63776 0.01,17.894 -0.4126,24.70623 -2.245,36.5 -3.1756,20.43933 -7.9409,39.81524 -16.478,67 -64.4697,205.29126 -228.7129,407.02649 -488.0134,599.4128 C 3388.5556,1104.5555 3385,1106.9445 3385,1105.609 z M 629.5,982.97417 C 615.43644,980.1379 596.99621,970.54944 583.39361,959 564.88462,943.28473 554.28558,927.01294 547.8785,904.4767 c -2.19524,-7.72155 -2.28555,-9.72002 -2.82314,-62.4767 -0.30545,-29.975 -0.19079,-58.325 0.25479,-63 1.53743,-16.1305 9.74859,-35.40021 21.16457,-49.66842 13.1807,-16.47384 29.19638,-27.57575 50.7504,-35.17968 18.5562,-6.54635 6.9602,-6.21124 204.78774,-5.91798 L 1001.5,688.5 l 8.5,2.86749 c 15.1796,5.12089 26.2074,11.56205 40.0589,23.39778 22.3811,19.12397 34.0719,41.95135 36.9322,72.11307 0.554,5.84191 1.0076,27.60916 1.0081,48.37166 L 1088,873 852.57143,873 c -219.6125,0 -235.542,0.11343 -237.11698,1.68841 -3.89749,3.89749 2.33306,21.92611 10.29221,29.78134 4.7676,4.70536 12.81976,8.32973 21.19992,9.54235 3.96817,0.5742 92.25603,0.9561 223.80342,0.96809 L 1088,915 l 0,34.5 0,34.5 -227.25,-0.10957 C 735.7625,983.83017 631.7,983.41785 629.5,982.97417 z M 1015.5478,801.3093 c 2.8382,-2.83817 1.5578,-14.31809 -2.521,-22.60336 -5.8687,-11.92098 -15.95578,-18.84407 -30.13869,-20.68514 -4.44269,-0.57671 -72.24562,-0.97136 -170.07273,-0.98992 -179.01513,-0.034 -171.38073,-0.28705 -182.4535,6.04815 -5.68084,3.25024 -7.66428,5.54322 -11.60925,13.42097 -4.5203,9.02661 -6.16838,21.94139 -3.1812,24.92857 C 616.98944,802.84658 636.50866,803 815.5,803 c 184.9277,0 198.4716,-0.11447 200.0478,-1.6907 z M 1148,947.02364 1148,912 l 193.75,-0.0119 c 209.6637,-0.0128 199.0771,0.25707 208.514,-5.3162 2.3298,-1.37594 5.6891,-4.01419 7.465,-5.86278 6.399,-6.66072 11.4004,-25.53685 7.7369,-29.20037 C 1563.9979,870.14072 1545.6692,870 1355.9286,870 L 1148,870 l 0.01,-40.25 c 0,-22.1375 0.4717,-44.3 1.0382,-49.25 1.1658,-10.18678 6.9308,-28.55208 12.2806,-39.12127 4.9984,-9.8751 14.5827,-22.25369 23.4826,-30.32902 12.0079,-10.89533 21.7115,-16.45806 38.6904,-22.1798 l 10,-3.36991 201.75,-0.2643 201.75,-0.26429 0,34.51429 0,34.5143 -192.25,0.0148 c -168.9669,0.013 -193.0356,0.19993 -198.7365,1.54356 -6.6166,1.55945 -13.6511,5.03562 -17.8625,8.82697 -7.2346,6.51305 -13.1104,30.51245 -8.5796,35.04326 1.4185,1.4185 21.8074,1.57143 209.5,1.57143 l 207.9286,0 0,45.04216 c 0,50.0811 -0.3246,53.49739 -6.5407,68.84681 -5.6014,13.83161 -12.7181,24.18227 -25.4593,37.02828 -12.4208,12.52304 -19.8579,17.57262 -33.7704,22.92911 -18.4226,7.09297 -0.5266,6.54016 -222.9796,6.8879 l -200.25,0.31302 0,-35.02364 z M 5,791.17814 c 0,-174.32612 0.1357015,-190.22416 1.6623341,-194.75 4.3028889,-12.7563 12.7117879,-19.9573 26.1506689,-22.39423 16.462441,-2.98521 32.243243,5.5704 38.400584,20.819 2.212605,5.47949 2.295212,6.87246 2.783347,46.93462 0.429336,35.23638 0.722908,41.42635 2.003066,42.23469 0.927965,0.58595 63.1509,0.95299 163.16203,0.96247 177.93056,0.0168 168.06959,-0.31749 185.67497,6.29536 13.01539,4.88878 23.94395,11.85833 34.05784,21.71995 10.02583,9.77577 16.22912,18.14045 21.87735,29.5 4.30501,8.65813 9.64206,23.98983 11.13936,32 0.51405,2.75 1.02127,31.1 1.12717,63 0.18609,56.06027 0.12263,58.25416 -1.89751,65.59975 -4.9349,17.94418 -14.31989,33.2341 -29.9516,48.79676 -17.02662,16.95141 -33.89173,25.23311 -57.16338,28.07037 C 398.46219,980.64525 328.49852,981 200.27623,981 L 5,981 5,791.17814 z m 389.14398,119.37891 c 17.57728,-3.7256 26.56486,-13.64497 29.04222,-32.0532 1.47987,-10.99627 0.50029,-89.95627 -1.20964,-97.50385 -1.97969,-8.73837 -6.26463,-15.33081 -12.79145,-19.67985 -11.52256,-7.67787 0.0657,-7.19796 -175.36368,-7.2625 -141.151117,-0.0519 -156.834308,0.0981 -158.250001,1.51378 C 74.170478,756.97238 74,765.37229 74,833 c 0,67.62771 0.170478,76.02762 1.571429,77.42857 1.41522,1.41522 16.997024,1.5697 156.750001,1.55407 129.5808,-0.0145 156.27454,-0.24966 161.82255,-1.42559 z m 1389.92472,69.35458 c -19.4457,-3.81444 -39.3712,-15.22919 -56.5777,-32.41163 -13.5521,-13.5333 -21.6765,-27.90669 -27.318,-48.33046 l -2.6709,-9.66954 0,-145 -10e-4,-145 2.8007,-6 c 3.1363,-6.71881 9.4251,-13.75828 14.6993,-16.45386 1.925,-0.98385 6.5562,-2.31314 10.2914,-2.95397 16.1173,-2.76509 30.1794,4.02908 37.0141,17.88342 l 3.1945,6.47559 0.5,40.31186 c 0.4263,34.3711 0.7211,40.45145 2,41.25909 0.898,0.5671 24.2749,0.95339 58.25,0.96256 L 1883,681 l 0,35 0,35 -56.9286,0 c -50.4199,0 -57.1082,0.17966 -58.5,1.57143 -1.3938,1.3938 -1.5697,8.31722 -1.5566,61.25 0.016,65.69883 0.1203,67.02343 6.1506,78.3376 6.0004,11.25781 14.59,16.58782 30.2403,18.76457 4.9422,0.68739 33.9141,1.0764 80.1667,1.0764 l 72.4276,0 0,34.5 0,34.5 -83.25,-0.10957 c -45.7875,-0.0603 -85.2441,-0.50072 -87.6813,-0.9788 z M 2183,791.03751 c 0,-188.52641 0.015,-190.00355 2.0325,-195.39482 2.7595,-7.37547 6.7913,-12.67514 12.5392,-16.48236 6.215,-4.1167 11.2775,-5.50367 19.9283,-5.45981 14.3418,0.0727 24.4464,6.39551 30.8037,19.27511 l 3.1963,6.47562 0.5,41.81189 c 0.427,35.70491 0.7191,41.95023 2,42.75906 0.928,0.58601 63.3423,0.95301 163.6846,0.96249 137.0429,0.0129 163.2412,0.23782 169,1.45066 40.6498,8.56107 70.8872,38.85853 81.8171,81.97956 2.2609,8.9202 2.307,10.16502 2.536,68.58509 0.2288,58.39261 0.193,59.63635 -1.9269,66.82637 -7.5021,25.44456 -27.059,50.65538 -49.6108,63.95343 -9.0791,5.35366 -25.6346,10.7863 -37,12.14145 -6.1195,0.72967 -71.4898,1.07402 -204.25,1.07593 L 2183,981 l 0,-189.96249 z m 389.144,119.51954 c 13.2184,-2.80171 21.9135,-9.47555 26.518,-20.35355 l 2.8375,-6.7035 3e-4,-48.5 c 2e-4,-53.24974 -0.2252,-55.78204 -5.7958,-65.10412 -3.5707,-5.97554 -10.0814,-10.86434 -18.204,-13.66927 -4.6412,-1.60272 -16.3845,-1.74563 -163.6635,-1.99164 -143.7686,-0.24015 -158.8125,-0.1161 -160.25,1.32143 -1.4208,1.42072 -1.5865,9.51102 -1.5865,77.4436 0,67.62771 0.1705,76.02762 1.5714,77.42857 1.4152,1.41522 16.9971,1.5697 156.75,1.55407 129.5808,-0.0145 156.2746,-0.24966 161.8226,-1.42559 z M 2737,791.17814 c 0,-173.72868 0.1399,-190.23967 1.6497,-194.75 4.2091,-12.57365 12.8653,-19.98284 26.1633,-22.39423 16.4616,-2.98506 32.2365,5.5667 38.4037,20.819 l 2.2833,5.64709 0.2602,190.25 0.2601,190.25 -34.5101,0 -34.5102,0 0,-189.82186 z m 219.0687,188.73349 c -19.5877,-3.84229 -38.7682,-14.78423 -56.1151,-32.01207 -14.3033,-14.20507 -22.0866,-27.93464 -28.2708,-49.86876 -2.0792,-7.37445 -2.13,-9.36394 -2.4486,-95.82867 -0.3583,-97.26387 -0.4525,-95.54671 5.7644,-105.16887 5.0824,-7.86622 11.8552,-12.19341 21.9502,-14.02397 16.0517,-2.91073 30.4775,3.98746 37.2956,17.83419 l 3.2556,6.61179 0.5274,85.52237 c 0.5674,92.01896 0.3119,87.79481 5.9934,99.05898 5.5303,10.96441 14.7854,16.71728 30.3849,18.88698 5.2645,0.73223 59.4936,1.0764 169.6013,1.0764 175.5988,0 169.8429,0.17181 180.7534,-5.3952 7.5392,-3.84679 12.4237,-10.1895 15.8675,-20.6048 1.6844,-5.09429 1.8574,-11.91763 2.3453,-92.5 l 0.5268,-87 2.2561,-4.2222 c 3.4319,-6.42254 8.0268,-11.13286 13.6539,-13.99705 6.7365,-3.4289 21.3455,-4.36587 29.7909,-1.91071 7.6256,2.21681 14.7418,8.73666 19.0185,17.42472 l 3.2806,6.66439 0,91.02043 0,91.02042 -2.2701,7.83428 c -5.9021,20.36922 -12.5586,32.5974 -24.8746,45.69578 -12.5613,13.35917 -27.6719,22.91212 -45.7889,28.94782 -19.1296,6.37302 -7.5398,6.03279 -201.4044,5.91255 -97.1641,-0.0603 -178.6561,-0.50072 -181.0933,-0.9788 z M 1959,789 l 0,-35 78.5,0 78.5,0 0,35 0,35 -78.5,0 -78.5,0 0,-35 z"
       id="path3029"
       inkscape:connector-curvature="0" />
    <path
       style="fill:#0336c9"
       d="m 2229.9285,1274.0244 c -6.3643,-0.4329 -13.1143,-1.0969 -15,-1.4757 -18.2076,-3.6569 -28.2374,-12.6334 -29.1051,-26.0487 l -0.3234,-5 7.8448,-0.2938 c 8.5844,-0.3214 10.1123,0.3292 10.9818,4.6766 0.8095,4.0478 5.0192,8.6383 9.6039,10.4727 9.2296,3.693 48.1509,4.595 64.8744,1.5035 14.6285,-2.7042 19.7438,-9.1725 20.8752,-26.397 0.6278,-9.5579 0.045,-11.2459 -2.7279,-7.9044 -2.7189,3.2761 -10.1896,6.6517 -17.6739,7.986 -9.3617,1.6689 -45.0119,1.9352 -57.0471,0.4262 -22.9041,-2.872 -32.5905,-10.7913 -37.316,-30.5083 -1.8108,-7.5555 -2.0618,-10.8442 -1.6,-20.9615 0.7487,-16.4043 3.8039,-25.495 11.0497,-32.8789 9.5491,-9.7309 18.6526,-12.2353 48.1351,-13.2419 30.5964,-1.0447 46.4766,1.6641 54.0282,9.2157 1.8728,1.8728 3.6216,3.4051 3.8862,3.4051 0.2646,0 0.6171,-2.3625 0.7833,-5.25 l 0.3023,-5.25 8,0 8,0 -0.03,50.5 c -0.026,43.9124 -0.2517,51.4681 -1.732,57.9217 -3.9633,17.2783 -13.7293,25.4405 -33.473,27.976 -11.2435,1.4438 -38.9149,2.0395 -52.3369,1.1267 z M 2284,1215.6138 c 5.9064,-2.2463 10.2099,-6.0728 13.0614,-11.6138 1.9738,-3.8354 2.38,-6.4066 2.7505,-17.4104 0.5406,-16.0603 -0.6939,-22.3463 -5.4147,-27.5717 -6.6473,-7.3578 -17.9085,-10.0121 -42.3972,-9.993 -23.8236,0.019 -36.6464,2.3706 -42.3274,7.7639 -6.8985,6.5492 -9.8922,19.7509 -7.9565,35.0864 1.5958,12.6423 4.9736,18.4583 13.1103,22.573 5.9191,2.9933 11.2276,3.4316 38.1736,3.152 22.123,-0.2296 27.2433,-0.5577 31,-1.9864 z m 1304.5,58.6945 c -26.6485,-1.1421 -40.5022,-6.4816 -46.0064,-17.7319 -1.5963,-3.2627 -2.7245,-7.357 -2.8255,-10.2539 l -0.1681,-4.8225 8.4956,0 8.4957,0 1.308,3.9927 c 2.8745,8.7739 9.011,12.0697 25.4032,13.6435 12.2513,1.1762 40.2276,0.4558 49.6024,-1.2772 9.8604,-1.8228 15.6241,-5.8548 18.6204,-13.026 1.5886,-3.8021 3.392,-22.833 2.1637,-22.833 -0.3885,0 -2.4228,1.3794 -4.5207,3.0654 -7.3696,5.9223 -13.8876,7.1978 -39.3486,7.7001 -34.9256,0.689 -49.9543,-1.8187 -59.0889,-9.8593 -6.0001,-5.2815 -8.9873,-10.4872 -11.6927,-20.3767 -1.9026,-6.9552 -2.1159,-9.694 -1.6744,-21.5 0.5655,-15.1192 2.3621,-21.9218 8.0106,-30.3324 3.6974,-5.5053 11.4642,-10.6884 19.606,-13.0838 13.4036,-3.9434 58.316,-4.6471 71.6197,-1.1221 3.3,0.8744 8.3556,3.1466 11.2346,5.0493 2.8791,1.9027 5.4407,3.4595 5.6925,3.4595 0.2519,0 0.5963,-1.9125 0.7654,-4.25 l 0.3075,-4.25 8.5,0 8.5,0 0.288,42 c 0.4032,58.7849 -1.1844,72.7617 -9.3478,82.2989 -7.563,8.8356 -16.7164,11.8398 -40.2815,13.2208 -15.1931,0.8903 -18.8802,0.9219 -33.6587,0.2886 z m 43.0346,-57.3993 c 10.3085,-1.9057 16.6471,-6.4518 20.09,-14.409 2.1604,-4.9929 3.1575,-27.8945 1.4848,-34.099 -2.3007,-8.5335 -8.025,-14.0774 -17.521,-16.9689 -6.8041,-2.0718 -35.8592,-3.0067 -49.5932,-1.5957 -17.4002,1.7877 -23.4732,5.1385 -28.1744,15.5453 -2.0482,4.5342 -2.3126,6.6589 -2.3164,18.6183 0,11.9849 0.2541,14.0611 2.2992,18.5 4.0047,8.6921 9.4078,13.017 18.0994,14.4872 7.133,1.2065 49,1.1477 55.6316,-0.078 z m 69.88,53.729 c -0.2875,-0.7491 -0.3858,-4.0116 -0.2186,-7.25 l 0.304,-5.888 11.1785,-0.6489 c 6.1482,-0.3568 12.8243,-1.192 14.8358,-1.8558 4.2895,-1.4157 9.6842,-5.9169 13.6573,-11.3953 3.1174,-4.2985 3.5983,-6.6 1.3793,-6.6 -2.3419,0 -4.95,-4.1713 -33.0362,-52.8362 -16.9892,-29.4371 -26.394,-46.6845 -25.7873,-47.2912 0.5253,-0.5253 4.9442,-0.824 9.8197,-0.6638 l 8.8646,0.2912 24.5441,43 c 13.4993,23.65 24.9942,42.9253 25.5442,42.834 0.55,-0.091 10.8278,-18.7662 22.8396,-41.5 12.0118,-22.7337 22.5441,-42.1215 23.405,-43.084 2.0763,-2.3212 17.9914,-2.6015 18.8622,-0.3322 0.6345,1.6535 -53.0151,101.8318 -60.3806,112.747 -8.4218,12.4806 -15.704,17.7686 -28.0822,20.3922 -8.9171,1.8901 -27.0149,1.9429 -27.7294,0.081 z M 1128.5,1236.8608 c -16.077,-2.0353 -24.4785,-6.1848 -30.425,-15.0267 -5.9248,-8.8097 -8.3373,-19.251 -8.2796,-35.8341 0.1097,-31.5256 9.9102,-45.6422 34.7046,-49.9881 10.1125,-1.7725 35.1474,-2.3309 50.263,-1.1211 22.6563,1.8134 33.1768,6.0313 38.7457,15.5339 2.6546,4.5296 5.9782,17.8641 5.0534,20.2741 -0.4053,1.0562 -2.4761,1.314 -8.7713,1.0919 l -8.2407,-0.2907 -0.7394,-4.3465 c -1.1672,-6.8615 -3.7232,-10.3491 -9.8211,-13.4008 -7.3508,-3.6786 -22.1749,-5.1869 -43.4896,-4.4248 -23.3923,0.8364 -30.4119,3.5078 -36,13.7002 l -3,5.4719 0,17 c 0,16.3219 0.1062,17.2266 2.6629,22.6807 3.2569,6.9476 8.6779,11.1801 16.6602,13.0074 7.825,1.7913 54.0072,1.8188 59.8814,0.036 4.5681,-1.3867 9.6591,-5.1844 11.5038,-8.5816 0.6398,-1.1781 1.675,-4.3921 2.3004,-7.1421 l 1.1371,-5 8.3247,-0.2928 8.3247,-0.2929 -0.5727,7.5725 c -1.2537,16.5756 -10.5228,25.6809 -29.6086,29.0853 -8.6787,1.548 -49.144,1.7408 -60.6139,0.2887 z m 146.4181,0.1618 c -16.6231,-2.0831 -27.9579,-8.11 -33.0843,-17.5914 -4.8721,-9.0112 -6.2429,-16.3662 -6.2306,-33.4312 0.01,-13.3301 0.3338,-16.5474 2.3153,-22.9816 4.7666,-15.4773 13.2109,-23.1609 29.1858,-26.5567 16.1476,-3.4325 61.4514,-2.7942 76.4284,1.0769 12.9084,3.3365 21.8444,12.6324 25.5781,26.6085 2.9322,10.9757 2.8681,33.4438 -0.1263,44.2537 -4.3416,15.6733 -11.3022,22.7933 -26.5124,27.1194 -4.8117,1.3686 -11.3155,1.7597 -33.4721,2.013 -15.125,0.1728 -30.4619,-0.057 -34.0819,-0.5106 z m 62.8235,-16.9267 c 6.0893,-2.7126 11.4363,-8.1904 13.3877,-13.7152 0.9488,-2.6861 1.3707,-8.96 1.3707,-20.3807 0,-15.7779 -0.1165,-16.7485 -2.6613,-22.1771 -5.13,-10.9434 -12.5799,-13.6523 -39.8387,-14.486 -34.4623,-1.0541 -47.1551,2.2851 -53.1534,13.9832 -2.9542,5.7614 -4.2896,19.7752 -3.0284,31.7785 1.3793,13.1274 4.4838,19.1042 12.072,23.2414 7.5227,4.1015 11.6959,4.5439 40.6098,4.3054 24.8367,-0.205 26.2345,-0.319 31.2416,-2.5495 z m 229.4513,16.8316 c -14.3437,-1.8622 -23.291,-6.3998 -26.6732,-13.5271 -2.042,-4.3033 -4.1815,-18.2334 -3.1952,-20.8037 0.546,-1.4227 1.9634,-1.6315 9.4091,-1.3859 l 8.7664,0.2892 0.5,6.0478 c 0.5973,7.2244 2.8331,11.0191 7.8278,13.2857 3.2094,1.4565 8.2096,1.6665 39.6722,1.6665 39.4283,0 39.6228,-0.027 44.4117,-6.1149 2.8181,-3.5826 2.8492,-11.6248 0.063,-16.1953 -3.8061,-6.2426 -5.4016,-6.4892 -46.9744,-7.259 -39.8453,-0.7379 -43.1173,-1.1271 -52.2589,-6.2164 -4.5483,-2.5321 -6.0728,-4.7248 -8.1511,-11.7234 -4.3719,-14.7218 1.409,-30.9515 12.6372,-35.4782 15.5131,-6.2541 70.8415,-7.2492 91.0771,-1.638 13.5628,3.7608 19.7663,10.8419 20.0414,22.8764 l 0.1543,6.7488 -8.4626,0 -8.4625,0 -0.7373,-3 c -0.4055,-1.65 -0.9795,-4.1823 -1.2757,-5.6273 -1.2836,-6.2636 -10.2887,-8.7498 -34.5619,-9.5422 -21.0822,-0.6883 -40.5441,0.7777 -45.9355,3.4602 -10.0991,5.0248 -10.1175,19.4698 -0.029,22.8217 1.9856,0.6597 16.5983,1.3885 35.9064,1.7908 17.907,0.3731 36.1582,1.1465 40.5582,1.7185 19.5331,2.5396 27.1256,11.0998 26.7929,30.2082 -0.1094,6.2784 -0.6668,8.9139 -2.8131,13.301 -4.2997,8.7882 -11.4986,12.4808 -27.8966,14.3093 -10.9166,1.2173 -60.9862,1.2083 -70.3903,-0.013 z m 151.9228,0 c -23.0975,-4.0593 -29.9619,-11.1968 -32.145,-33.4241 -0.5942,-6.05 -0.9432,-23.6 -0.7756,-39 l 0.3049,-28 8,0 8,0 0.6023,32.5 c 0.788,42.5169 1.5905,45.3677 14.3977,51.1503 4.4444,2.0067 6.9881,2.3032 22.8911,2.6681 32.2982,0.741 45.3522,-3.5007 51.4301,-16.7114 2.5579,-5.5598 2.5842,-5.8764 3.1292,-37.607 l 0.5496,-32 8,0 8,0 0,50 0,50 -8,0 -8,0 -0.2977,-6.25 c -0.1638,-3.4375 -0.5476,-6.25 -0.8531,-6.25 -0.3054,0 -2.7156,1.9423 -5.3559,4.3161 -3.4705,3.1203 -6.836,4.9616 -12.1469,6.6456 -6.6332,2.1034 -9.5307,2.3576 -29.8464,2.6191 -12.375,0.1592 -24.9229,-0.1363 -27.8843,-0.6567 z m 194.7656,-0.4308 c -12.166,-2.4239 -19.6574,-8.0223 -22.5573,-16.8571 -1.3801,-4.2048 -1.789,-10.9391 -2.2549,-37.1362 l -0.5691,-32 -12,-0.5 -12,-0.5 0,-6.5 0,-6.5 12,-0.5 12,-0.5 0.5,-12 0.5,-12 8,0 8,0 0.5,12 0.5,12 35.5,0.5 35.5,0.5 0,6.5 0,6.5 -35.5,0.5 -35.5,0.5 0,30 c 0,34.2697 0.1077,34.767 8.5511,39.4869 4.0898,2.2863 5.6595,2.5134 19.4489,2.8144 14.0677,0.3071 15.2783,0.1836 19.4771,-1.9869 6.6692,-3.4475 8.3331,-7.1089 8.982,-19.7648 l 0.5409,-10.5496 8,0 8,0 0.3305,8 c 0.9422,22.8071 -6.4344,34.1726 -24.6459,37.9733 -9.0071,1.8798 -31.9135,1.8909 -41.3033,0.02 z m 773,0 c -8.4958,-1.6927 -13.9069,-4.4878 -17.7767,-9.1826 -5.9505,-7.2189 -6.4699,-10.5501 -7.0652,-45.3107 l -0.5394,-31.5 -12,-0.5 -12,-0.5 0,-6.5 0,-6.5 12,-0.5 12,-0.5 0.5,-12 0.5,-12 8.5,0 8.5,0 0.5,12 0.5,12 35.5,0.5 35.5,0.5 0,6.5 0,6.5 -35.5,0.5 -35.5,0.5 -0.2647,30.2712 c -0.3017,34.5063 -0.3375,34.3209 7.5203,38.9399 4.6794,2.7507 4.9729,2.7889 21.4196,2.7889 15.2817,0 16.9061,-0.1723 19.4382,-2.0618 5.9548,-4.4435 6.8477,-6.7113 7.3866,-18.7592 l 0.5,-11.179 8,0 8,0 0.3093,10 c 0.4094,13.2411 -1.5565,20.7952 -7.0304,27.0138 -4.4987,5.1108 -8.1826,6.9526 -18.0943,9.0465 -8.4915,1.7938 -31.6549,1.7558 -40.8033,-0.067 z m 318.3656,0.4559 c -23.658,-2.9228 -33.4724,-10.2022 -38.3565,-28.4492 -3.0949,-11.5628 -3.1031,-32.7739 -0.017,-43.8754 3.5349,-12.7158 9.0503,-20.0371 18.8377,-25.0056 12.4924,-6.3417 64.2233,-7.4679 84.3289,-1.836 17.4513,4.8884 25.5618,17.3313 26.6978,40.9587 l 0.5404,11.2417 -56.8891,0.2583 -56.8891,0.2583 0.086,6 c 0.1088,7.6042 1.8095,12.7418 5.6753,17.1447 7.1415,8.1337 15.386,9.6631 49.5639,9.194 24.28,-0.3333 24.7656,-0.3812 30.3402,-2.9946 6.0083,-2.8167 8.6823,-5.864 9.7571,-11.1191 l 0.6596,-3.225 8.459,0 8.459,0 -0.059,4.6857 c -0.039,3.129 -1.0434,6.6174 -3.0225,10.5 -3.7506,7.3581 -9.2904,11.2257 -20.5831,14.3699 -7.6031,2.1169 -10.6205,2.3414 -34.3356,2.5552 -14.3,0.129 -29.2639,-0.1688 -33.2531,-0.6616 z m 72.5579,-65.643 c 0.7048,-9.7001 -6.9004,-17.4722 -19.8048,-20.2391 -8.3307,-1.7862 -35.074,-2.4886 -46.5711,-1.2231 -14.3924,1.5842 -21.1384,4.9287 -25.0509,12.4197 -1.6328,3.1261 -3.4557,11.8015 -2.7275,12.9799 0.2639,0.4268 21.4879,0.6592 47.1646,0.5162 l 46.6849,-0.2598 0.3048,-4.1938 z m 226.4421,65.643 c -26.6374,-3.2908 -35.6774,-11.2247 -39.8222,-34.9492 -2.9934,-17.1337 -0.453,-38.4505 5.8675,-49.2357 7.6304,-13.0202 19.1833,-17.3949 48.7078,-18.4442 29.3116,-1.0417 51.4982,2.0106 61.1781,8.4165 4.4568,2.9493 9.7912,9.9401 12.0791,15.8298 2.11,5.4315 3.958,18.6258 3.5624,25.4336 l -0.3196,5.5 -56.5,0.5 -56.5,0.5 0.1346,7.2166 c 0.2578,13.8211 7.6594,21.8278 22.3873,24.2173 8.1565,1.3233 47.4898,1.3801 55.429,0.08 3.2965,-0.5398 7.98,-2.2217 10.5,-3.7706 3.7108,-2.2809 4.8541,-3.7128 6.2041,-7.7698 l 1.655,-4.9735 8.1107,-0.2907 c 9.7386,-0.349 10.1451,0.1362 7.6459,9.1268 -2.3103,8.3114 -4.7226,11.9138 -10.4309,15.5768 -9.3673,6.011 -17.4559,7.3382 -46.6357,7.6524 -14.3,0.154 -29.2639,-0.1233 -33.2531,-0.6161 z m 72.5919,-64.4311 c 0.9117,-8.0243 -4.7604,-16.2226 -13.4811,-19.4855 -13.7438,-5.1422 -54.9289,-5.3983 -67.0398,-0.4169 -4.7649,1.9599 -8.9671,5.8303 -11.2743,10.3843 -2.0484,4.0432 -3.4217,10.5792 -2.527,12.0269 0.3957,0.6402 17.1934,0.9005 47.2985,0.7329 l 46.6849,-0.2598 0.3388,-2.9819 z m -1985.3642,63.2742 c -0.2724,-0.7107 -0.3781,-23.3423 -0.2349,-50.2923 l 0.2603,-49 8,0 8,0 0.2977,6.25 c 0.1638,3.4375 0.6416,6.25 1.062,6.25 0.4203,0 1.7478,-1.3305 2.9501,-2.9566 3.1913,-4.3165 9.7496,-7.7679 18.0974,-9.5239 10.2724,-2.1608 34.207,-2.9679 49.1763,-1.6582 22.0481,1.929 30.2155,5.8955 35.879,17.4243 2.6779,5.4512 3.1798,7.8724 4.087,19.7144 0.5688,7.425 0.9028,24.975 0.7423,39 l -0.2918,25.5 -8.5,0 -8.5,0 -0.5,-35.5 c -0.5455,-38.7313 -0.4852,-38.331 -6.6607,-44.197 -3.9992,-3.7986 -8.7508,-5.5415 -18.4106,-6.7527 -16.1314,-2.0227 -40.5118,-0.6203 -50.5498,2.9078 -6.6183,2.3261 -12.3553,6.8993 -15.4646,12.3273 -2.3889,4.1702 -2.4196,4.5672 -2.9143,37.7146 l -0.5,33.5 -7.7651,0.2923 c -5.6444,0.2125 -7.9004,-0.061 -8.2603,-1 z m 443.0015,0 c -0.2715,-0.7107 -0.3772,-33.4673 -0.2348,-72.7923 l 0.2587,-71.5 8,0 8,0 0,72.5 0,72.5 -7.7651,0.2923 c -5.645,0.2126 -7.8999,-0.061 -8.2588,-1 z m 161.9985,0 c -0.2724,-0.7107 -0.3781,-23.3423 -0.2349,-50.2923 l 0.2603,-49 8,0 8,0 0,50 0,50 -7.7651,0.2923 c -5.6444,0.2125 -7.9004,-0.061 -8.2603,-1 z m 38.9993,0 c -0.272,-0.7099 -0.3774,-23.3407 -0.2342,-50.2907 l 0.2603,-49 8.5,0 8.5,0 0.2999,5.75 c 0.165,3.1625 0.6531,5.75 1.0847,5.75 0.4316,0 2.0275,-1.3947 3.5464,-3.0994 3.4355,-3.8558 11.0634,-7.3761 19.569,-9.0311 8.1464,-1.5851 49.2918,-1.6816 57,-0.1337 15.0733,3.027 22.9645,8.5667 27.1931,19.09 2.233,5.557 2.2804,6.4594 2.2935,43.6742 l 0.013,38 -8,0 -8,0 -0.5,-35 c -0.486,-34.0205 -0.5637,-35.1193 -2.7772,-39.2634 -2.9114,-5.4509 -8.9124,-9.7872 -15.5234,-11.2173 -14.5237,-3.1416 -47.7675,-1.9341 -58.021,2.1075 -6.7056,2.6431 -12.2668,7.1902 -14.9662,12.2372 -2.1236,3.9703 -2.2322,5.4778 -2.7122,37.636 l -0.5,33.5 -8.2658,0.2907 c -6.0467,0.2127 -8.3985,-0.056 -8.7603,-1 z m 399.0976,-1.0412 c -3.083,-4.7053 -46.4711,-97.103 -45.9747,-97.9061 0.2867,-0.4639 4.2987,-0.8434 8.9155,-0.8434 7.5593,0 8.5553,0.2238 10.012,2.25 0.8897,1.2375 9.8781,20.025 19.9742,41.75 10.418,22.4176 18.9204,39.5 19.6604,39.5 0.8095,0 7.0008,-15.7351 16.3292,-41.5 l 15.0252,-41.5 13.4161,0 13.4161,0 15.5178,42.2698 c 8.5348,23.2484 15.9208,42.1355 16.4133,41.9713 0.4924,-0.1641 9.3714,-18.6469 19.7309,-41.0727 10.3596,-22.4259 19.376,-41.4255 20.0365,-42.2214 1.6579,-1.9976 17.7769,-2.0773 18.5389,-0.092 0.2861,0.7455 -9.9695,23.358 -22.7901,50.25 l -23.3101,48.8946 -11.9082,0.2832 c -7.5783,0.1802 -12.302,-0.1103 -12.9913,-0.7988 -0.5958,-0.5951 -7.9016,-19.3975 -16.2351,-41.7832 -9.0971,-24.4367 -15.6621,-40.7012 -16.4286,-40.7012 -0.7692,0 -7.104,15.8512 -15.9358,39.8753 -8.0625,21.9314 -15.186,40.7189 -15.8299,41.75 -1.0341,1.6559 -2.5093,1.8747 -12.6392,1.8747 -10.7905,0 -11.5557,-0.133 -12.9431,-2.2505 z m 172.9031,1.0428 c -0.2724,-0.7107 -0.3781,-23.3423 -0.2349,-50.2923 l 0.2603,-49 8,0 8,0 0,50 0,50 -7.7651,0.2923 c -5.6444,0.2125 -7.9004,-0.061 -8.2603,-1 z m 162.0009,0 c -0.2712,-0.7099 -0.3766,-33.4657 -0.2342,-72.7907 l 0.2587,-71.5 8.5,0 8.5,0 0.2656,28.25 c 0.1719,18.2855 0.6238,28.25 1.2814,28.25 0.5587,0 1.2808,-0.6906 1.6047,-1.5347 1.1276,-2.9384 9.3663,-7.552 17.0818,-9.5656 15.4826,-4.0408 54.7243,-3.6153 68.7665,0.7456 6.4176,1.993 13.5296,6.7246 16.3965,10.9086 5.2185,7.616 5.4922,10.1039 5.5499,50.4461 l 0.054,37.5 -8,0 -8,0 -0.5063,-34.5 c -0.4739,-32.2943 -0.64,-34.7898 -2.5978,-39.033 -4.7057,-10.199 -11.7756,-12.9501 -35.22,-13.7051 -26.4095,-0.8505 -40.6988,2.0774 -49.0112,10.0422 -6.7302,6.4488 -6.614,5.7481 -7.1647,43.1959 l -0.5,34 -8.2658,0.2907 c -6.0472,0.2127 -8.398,-0.056 -8.7587,-1 z m 346.9991,0 c -0.2724,-0.7107 -0.3781,-23.3423 -0.2349,-50.2923 l 0.2603,-49 8,0 8,0 0.2977,6.25 c 0.1638,3.4375 0.6416,6.25 1.062,6.25 0.4203,0 1.7478,-1.3305 2.9501,-2.9566 3.1377,-4.2439 9.915,-7.8777 17.8266,-9.5581 9.6365,-2.0467 35.6095,-2.8982 49.6617,-1.6281 21.7179,1.9629 30.0551,6.0202 35.6256,17.3372 2.7723,5.6323 3.2128,7.8005 4.1257,20.3056 0.5621,7.7 0.8935,25.25 0.7363,39 l -0.2857,25 -8.5,0 -8.5,0 -0.5,-35 c -0.5459,-38.2161 -0.6791,-39.1139 -6.6268,-44.697 -4.0551,-3.8064 -8.7995,-5.5433 -18.4445,-6.7527 -16.1314,-2.0227 -40.5118,-0.6203 -50.5498,2.9078 -6.6395,2.3336 -12.9742,7.3865 -15.7236,12.5419 -2.0219,3.7912 -2.1599,5.7486 -2.6443,37.5 l -0.511,33.5 -7.7651,0.2923 c -5.6444,0.2125 -7.9004,-0.061 -8.2603,-1 z m 297.9993,0 c -0.272,-0.7099 -0.3774,-23.3407 -0.2342,-50.2907 l 0.2603,-49 8.5,0 8.5,0 0.3023,5.25 c 0.2898,5.035 1.6432,6.8586 2.818,3.7972 0.9634,-2.5108 9.6808,-7.4061 16.413,-9.217 5.0958,-1.3707 10.6006,-1.7408 25.9667,-1.7458 27.1305,-0.01 35.0905,2.347 41.826,12.3785 4.144,6.1719 6.0763,13.7298 6.4011,25.0371 l 0.2729,9.5 -8.5,0 -8.5,0 -0.6244,-9.5568 c -0.8271,-12.659 -2.701,-16.2037 -10.8756,-20.5726 -3.0635,-1.6373 -5.8073,-1.8672 -22,-1.8431 -26.4833,0.039 -33.6741,2.5758 -39.4817,13.9267 l -3.0183,5.8992 -0.5,33.5733 -0.5,33.5733 -8.2658,0.2907 c -6.0467,0.2127 -8.3985,-0.056 -8.7603,-1 z m -1418.0322,-126.082 c -0.2904,-0.7567 -0.3961,-5.1633 -0.2348,-9.7923 l 0.2931,-8.4164 8,0 8,0 0,9.5 0,9.5 -7.7651,0.2923 c -5.875,0.2212 -7.8937,-0.043 -8.2932,-1.0836 z m 611,0 c -0.2904,-0.7567 -0.3961,-5.1633 -0.2348,-9.7923 l 0.2931,-8.4164 8,0 8,0 0,9.5 0,9.5 -7.7651,0.2923 c -5.875,0.2212 -7.8937,-0.043 -8.2932,-1.0836 z M 629.5,982.97417 C 615.43644,980.1379 596.99621,970.54944 583.39361,959 564.88462,943.28473 554.28558,927.01294 547.8785,904.4767 c -2.19524,-7.72155 -2.28555,-9.72002 -2.82314,-62.4767 -0.30545,-29.975 -0.19079,-58.325 0.25479,-63 1.53743,-16.1305 9.74859,-35.40021 21.16457,-49.66842 13.1807,-16.47384 29.19638,-27.57575 50.7504,-35.17968 18.5562,-6.54635 6.9602,-6.21124 204.78774,-5.91798 L 1001.5,688.5 l 8.5,2.86749 c 15.1796,5.12089 26.2074,11.56205 40.0589,23.39778 22.3811,19.12397 34.0719,41.95135 36.9322,72.11307 0.554,5.84191 1.0076,27.60916 1.0081,48.37166 L 1088,873 852.57143,873 c -219.6125,0 -235.542,0.11343 -237.11698,1.68841 -3.89749,3.89749 2.33306,21.92611 10.29221,29.78134 4.7676,4.70536 12.81976,8.32973 21.19992,9.54235 3.96817,0.5742 92.25603,0.9561 223.80342,0.96809 L 1088,915 l 0,34.5 0,34.5 -227.25,-0.10957 C 735.7625,983.83017 631.7,983.41785 629.5,982.97417 z M 1015.5478,801.3093 c 2.8382,-2.83817 1.5578,-14.31809 -2.521,-22.60336 -5.8687,-11.92098 -15.95578,-18.84407 -30.13869,-20.68514 -4.44269,-0.57671 -72.24562,-0.97136 -170.07273,-0.98992 -179.01513,-0.034 -171.38073,-0.28705 -182.4535,6.04815 -5.68084,3.25024 -7.66428,5.54322 -11.60925,13.42097 -4.5203,9.02661 -6.16838,21.94139 -3.1812,24.92857 C 616.98944,802.84658 636.50866,803 815.5,803 c 184.9277,0 198.4716,-0.11447 200.0478,-1.6907 z M 1148,947.02364 1148,912 l 193.75,-0.0119 c 209.6637,-0.0128 199.0771,0.25707 208.514,-5.3162 2.3298,-1.37594 5.6891,-4.01419 7.465,-5.86278 6.399,-6.66072 11.4004,-25.53685 7.7369,-29.20037 C 1563.9979,870.14072 1545.6692,870 1355.9286,870 L 1148,870 l 0.01,-40.25 c 0,-22.1375 0.4717,-44.3 1.0382,-49.25 1.1658,-10.18678 6.9308,-28.55208 12.2806,-39.12127 4.9984,-9.8751 14.5827,-22.25369 23.4826,-30.32902 12.0079,-10.89533 21.7115,-16.45806 38.6904,-22.1798 l 10,-3.36991 201.75,-0.2643 201.75,-0.26429 0,34.51429 0,34.5143 -192.25,0.0148 c -168.9669,0.013 -193.0356,0.19993 -198.7365,1.54356 -6.6166,1.55945 -13.6511,5.03562 -17.8625,8.82697 -7.2346,6.51305 -13.1104,30.51245 -8.5796,35.04326 1.4185,1.4185 21.8074,1.57143 209.5,1.57143 l 207.9286,0 0,45.04216 c 0,50.0811 -0.3246,53.49739 -6.5407,68.84681 -5.6014,13.83161 -12.7181,24.18227 -25.4593,37.02828 -12.4208,12.52304 -19.8579,17.57262 -33.7704,22.92911 -18.4226,7.09297 -0.5266,6.54016 -222.9796,6.8879 l -200.25,0.31302 0,-35.02364 z M 5,791.17814 c 0,-174.32612 0.1357015,-190.22416 1.6623341,-194.75 4.3028889,-12.7563 12.7117879,-19.9573 26.1506689,-22.39423 16.462441,-2.98521 32.243243,5.5704 38.400584,20.819 2.212605,5.47949 2.295212,6.87246 2.783347,46.93462 0.429336,35.23638 0.722908,41.42635 2.003066,42.23469 0.927965,0.58595 63.1509,0.95299 163.16203,0.96247 177.93056,0.0168 168.06959,-0.31749 185.67497,6.29536 13.01539,4.88878 23.94395,11.85833 34.05784,21.71995 10.02583,9.77577 16.22912,18.14045 21.87735,29.5 4.30501,8.65813 9.64206,23.98983 11.13936,32 0.51405,2.75 1.02127,31.1 1.12717,63 0.18609,56.06027 0.12263,58.25416 -1.89751,65.59975 -4.9349,17.94418 -14.31989,33.2341 -29.9516,48.79676 -17.02662,16.95141 -33.89173,25.23311 -57.16338,28.07037 C 398.46219,980.64525 328.49852,981 200.27623,981 L 5,981 5,791.17814 z m 389.14398,119.37891 c 17.57728,-3.7256 26.56486,-13.64497 29.04222,-32.0532 1.47987,-10.99627 0.50029,-89.95627 -1.20964,-97.50385 -1.97969,-8.73837 -6.26463,-15.33081 -12.79145,-19.67985 -11.52256,-7.67787 0.0657,-7.19796 -175.36368,-7.2625 -141.151117,-0.0519 -156.834308,0.0981 -158.250001,1.51378 C 74.170478,756.97238 74,765.37229 74,833 c 0,67.62771 0.170478,76.02762 1.571429,77.42857 1.41522,1.41522 16.997024,1.5697 156.750001,1.55407 129.5808,-0.0145 156.27454,-0.24966 161.82255,-1.42559 z m 1389.92472,69.35458 c -19.4457,-3.81444 -39.3712,-15.22919 -56.5777,-32.41163 -13.5521,-13.5333 -21.6765,-27.90669 -27.318,-48.33046 l -2.6709,-9.66954 0,-145 -10e-4,-145 2.8007,-6 c 3.1363,-6.71881 9.4251,-13.75828 14.6993,-16.45386 1.925,-0.98385 6.5562,-2.31314 10.2914,-2.95397 16.1173,-2.76509 30.1794,4.02908 37.0141,17.88342 l 3.1945,6.47559 0.5,40.31186 c 0.4263,34.3711 0.7211,40.45145 2,41.25909 0.898,0.5671 24.2749,0.95339 58.25,0.96256 L 1883,681 l 0,35 0,35 -56.9286,0 c -50.4199,0 -57.1082,0.17966 -58.5,1.57143 -1.3938,1.3938 -1.5697,8.31722 -1.5566,61.25 0.016,65.69883 0.1203,67.02343 6.1506,78.3376 6.0004,11.25781 14.59,16.58782 30.2403,18.76457 4.9422,0.68739 33.9141,1.0764 80.1667,1.0764 l 72.4276,0 0,34.5 0,34.5 -83.25,-0.10957 c -45.7875,-0.0603 -85.2441,-0.50072 -87.6813,-0.9788 z M 2183,791.03751 c 0,-188.52641 0.015,-190.00355 2.0325,-195.39482 2.7595,-7.37547 6.7913,-12.67514 12.5392,-16.48236 6.215,-4.1167 11.2775,-5.50367 19.9283,-5.45981 14.3418,0.0727 24.4464,6.39551 30.8037,19.27511 l 3.1963,6.47562 0.5,41.81189 c 0.427,35.70491 0.7191,41.95023 2,42.75906 0.928,0.58601 63.3423,0.95301 163.6846,0.96249 137.0429,0.0129 163.2412,0.23782 169,1.45066 40.6498,8.56107 70.8872,38.85853 81.8171,81.97956 2.2609,8.9202 2.307,10.16502 2.536,68.58509 0.2288,58.39261 0.193,59.63635 -1.9269,66.82637 -7.5021,25.44456 -27.059,50.65538 -49.6108,63.95343 -9.0791,5.35366 -25.6346,10.7863 -37,12.14145 -6.1195,0.72967 -71.4898,1.07402 -204.25,1.07593 L 2183,981 l 0,-189.96249 z m 389.144,119.51954 c 13.2184,-2.80171 21.9135,-9.47555 26.518,-20.35355 l 2.8375,-6.7035 3e-4,-48.5 c 2e-4,-53.24974 -0.2252,-55.78204 -5.7958,-65.10412 -3.5707,-5.97554 -10.0814,-10.86434 -18.204,-13.66927 -4.6412,-1.60272 -16.3845,-1.74563 -163.6635,-1.99164 -143.7686,-0.24015 -158.8125,-0.1161 -160.25,1.32143 -1.4208,1.42072 -1.5865,9.51102 -1.5865,77.4436 0,67.62771 0.1705,76.02762 1.5714,77.42857 1.4152,1.41522 16.9971,1.5697 156.75,1.55407 129.5808,-0.0145 156.2746,-0.24966 161.8226,-1.42559 z M 2737,791.17814 c 0,-173.72868 0.1399,-190.23967 1.6497,-194.75 4.2091,-12.57365 12.8653,-19.98284 26.1633,-22.39423 16.4616,-2.98506 32.2365,5.5667 38.4037,20.819 l 2.2833,5.64709 0.2602,190.25 0.2601,190.25 -34.5101,0 -34.5102,0 0,-189.82186 z m 219.0687,188.73349 c -19.5877,-3.84229 -38.7682,-14.78423 -56.1151,-32.01207 -14.3033,-14.20507 -22.0866,-27.93464 -28.2708,-49.86876 -2.0792,-7.37445 -2.13,-9.36394 -2.4486,-95.82867 -0.3583,-97.26387 -0.4525,-95.54671 5.7644,-105.16887 5.0824,-7.86622 11.8552,-12.19341 21.9502,-14.02397 16.0517,-2.91073 30.4775,3.98746 37.2956,17.83419 l 3.2556,6.61179 0.5274,85.52237 c 0.5674,92.01896 0.3119,87.79481 5.9934,99.05898 5.5303,10.96441 14.7854,16.71728 30.3849,18.88698 5.2645,0.73223 59.4936,1.0764 169.6013,1.0764 175.5988,0 169.8429,0.17181 180.7534,-5.3952 7.5392,-3.84679 12.4237,-10.1895 15.8675,-20.6048 1.6844,-5.09429 1.8574,-11.91763 2.3453,-92.5 l 0.5268,-87 2.2561,-4.2222 c 3.4319,-6.42254 8.0268,-11.13286 13.6539,-13.99705 6.7365,-3.4289 21.3455,-4.36587 29.7909,-1.91071 7.6256,2.21681 14.7418,8.73666 19.0185,17.42472 l 3.2806,6.66439 0,91.02043 0,91.02042 -2.2701,7.83428 c -5.9021,20.36922 -12.5586,32.5974 -24.8746,45.69578 -12.5613,13.35917 -27.6719,22.91212 -45.7889,28.94782 -19.1296,6.37302 -7.5398,6.03279 -201.4044,5.91255 -97.1641,-0.0603 -178.6561,-0.50072 -181.0933,-0.9788 z M 1959,789 l 0,-35 78.5,0 78.5,0 0,35 0,35 -78.5,0 -78.5,0 0,-35 z"
       id="path3027"
       inkscape:connector-curvature="0" />
    <path
       style="fill:#0e0e0e"
       d="m 2229.9134,1274.0236 c -23.3626,-1.5884 -34.3694,-6.12 -40.5718,-16.7037 -3.0385,-5.1848 -4.6809,-13.1382 -3.112,-15.0699 1.3396,-1.6493 14.9301,-1.6903 16.5704,-0.05 0.66,0.66 1.2,2.2193 1.2,3.4652 0,3.1608 5.2662,8.824 9.9469,10.6969 12.2979,4.9206 63.9392,4.2931 74.0531,-0.8999 3.6614,-1.88 7.671,-6.4285 9.4762,-10.7502 1.6639,-3.9832 3.3696,-22.712 2.0685,-22.712 -0.4163,0 -2.3966,1.2977 -4.4008,2.8838 -8.9254,7.0635 -18.6738,8.5476 -51.442,7.8315 -26.3189,-0.5752 -33.0721,-1.6149 -41.9795,-6.4629 -13.0187,-7.0857 -19.5534,-23.4619 -18.4261,-46.1765 1.1918,-24.0157 10.3918,-37.8872 28.2136,-42.5401 7.8094,-2.0389 24.83,-3.5185 40.4901,-3.5197 24.1637,0 37.7703,2.947 44.2165,9.5827 1.8059,1.8589 3.5975,3.3847 3.9812,3.3906 0.3838,0.01 0.8338,-2.3519 1,-5.2394 l 0.3023,-5.25 6.84,-0.2977 c 4.3551,-0.1896 7.3786,0.1492 8.3225,0.9326 1.2849,1.0663 1.4234,7.9048 1.0392,51.2977 -0.3025,34.1568 -0.8308,51.8152 -1.6625,55.5674 -3.9011,17.6003 -14.118,26.3697 -33.6474,28.8803 -11.3529,1.4595 -38.9765,2.0613 -52.4784,1.1433 z m 53.763,-58.1918 c 6.5728,-2.4349 11.9408,-7.269 14.001,-12.6084 2.5831,-6.6943 2.6813,-35.1565 0.1373,-39.7986 -2.5977,-4.7401 -9.2393,-10.1907 -14.008,-11.4961 -14.1169,-3.8643 -51.3137,-3.8313 -65.759,0.059 -6.4019,1.7238 -12.6938,8.0594 -14.7989,14.9016 -2.0955,6.8113 -2.2922,26.2963 -0.3341,33.102 2.5193,8.7563 8.855,14.6436 17.9458,16.6757 8.5109,1.9026 57.1726,1.2559 62.8159,-0.8347 z m 1299.647,58.15 c -28.1757,-1.9172 -40.7665,-9.451 -43.8577,-26.2428 -1.0113,-5.4931 0.4816,-6.739 8.075,-6.739 8.2001,0 9.2448,0.4896 10.4291,4.8879 1.4652,5.4414 6.4553,9.7322 13.427,11.5454 13.0208,3.3866 54.7242,2.8447 67.1305,-0.8723 5.6806,-1.7019 10.5727,-6.1461 12.895,-11.7143 1.4715,-3.528 3.4381,-22.8467 2.3258,-22.8467 -0.3009,0 -2.8891,1.576 -5.7514,3.5023 -9.6267,6.4782 -13.0073,7.0016 -44.9967,6.9659 -23.689,-0.026 -29.6654,-0.3254 -35.4037,-1.7713 -16.4458,-4.1437 -24.6132,-12.4902 -29.1293,-29.7683 -2.5666,-9.8195 -1.6319,-31.025 1.7707,-40.1706 4.3685,-11.742 12.9933,-19.8095 24.7623,-23.1622 11.4847,-3.2718 44.4482,-4.6163 62.4942,-2.5491 9.6449,1.1049 17.4541,4.0425 22.8433,8.5932 l 3.1625,2.6705 0.3245,-3.8925 c 0.1785,-2.1409 0.7961,-4.4607 1.3725,-5.1552 1.5403,-1.856 14.2016,-1.6923 15.7753,0.204 1.9739,2.3783 0.8169,97.7783 -1.2954,106.8137 -4.1151,17.6023 -13.9071,25.9974 -33.4022,28.6372 -10.3877,1.4065 -39.3623,1.9889 -52.9513,1.0642 z m 48.2429,-57.0249 c 8.626,-1.5165 10.8559,-2.6318 15.7738,-7.8894 3.8415,-4.1069 4.5793,-5.6329 5.6676,-11.7224 1.6871,-9.4408 0.9324,-29.752 -1.2604,-33.9203 -2.4619,-4.6796 -9.1315,-10.1796 -13.9406,-11.4961 -14.1988,-3.8867 -51.3188,-3.8299 -65.9167,0.1009 -5.8836,1.5843 -13.2108,8.8924 -15.0114,14.9722 -1.7843,6.0247 -1.7909,27.0795 -0.01,33.2063 1.5563,5.3551 6.8719,12.089 11.3851,14.4229 1.679,0.8682 5.1213,1.9285 7.6497,2.3562 6.9694,1.1789 48.9149,1.156 55.6633,-0.03 z m 70.6071,53.752 c -0.8063,-0.9714 -1.1666,-3.6945 -0.9758,-7.3745 l 0.3024,-5.8344 11.1785,-0.6489 c 13.0659,-0.7584 17.1858,-1.9166 22.0789,-6.207 3.9998,-3.5071 9.2426,-10.3464 9.2426,-12.057 0,-0.6121 -1.0124,-1.5571 -2.2498,-2.1 -2.5193,-1.1053 -59.1493,-98.0323 -58.1863,-99.5905 0.6616,-1.0705 16.4527,-1.1854 18.0481,-0.1313 0.6115,0.4041 11.8272,19.6347 24.9236,42.7347 13.0964,23.1 24.1867,42.4307 24.6451,42.9571 0.5169,0.5935 1.3721,0.4036 2.2509,-0.5 0.7795,-0.8014 11.1465,-19.8853 23.0377,-42.4087 11.8913,-22.5234 22.1053,-41.5359 22.698,-42.25 1.319,-1.5893 17.39,-1.8237 18.3517,-0.2677 0.9076,1.4686 -57.0013,108.7699 -63.019,116.7699 -5.6879,7.5615 -13.5676,13.5115 -20.9506,15.8197 -2.8635,0.8953 -10.4713,1.806 -17.5736,2.1038 -10.5008,0.4402 -12.7306,0.2762 -13.8024,-1.0152 z M 1132.5,1237.3283 c -21.9177,-2.7178 -30.4356,-7.374 -36.9282,-20.1866 -4.341,-8.5667 -5.8025,-16.4571 -5.7681,-31.1417 0.073,-30.9966 10.2262,-45.6207 34.6963,-49.9727 16.6212,-2.9561 57.2865,-2.039 69.5728,1.569 14.91,4.3785 21.1155,11.0997 23.8276,25.8078 1.478,8.0154 0.7509,8.7589 -8.2018,8.3866 -7.6747,-0.3192 -7.7268,-0.3609 -9.7168,-7.7774 -1.4377,-5.3579 -6.0602,-10.0753 -11.5736,-11.811 -11.2953,-3.5561 -50.3755,-4.0453 -62.3128,-0.7801 -6.7946,1.8586 -11.8905,5.9386 -15.0254,12.0304 -2.1524,4.1826 -2.4911,6.3765 -2.8837,18.678 -1.1541,36.1606 6.8062,41.8698 56.6055,40.598 10.874,-0.2778 21.5012,-1.0422 23.7082,-1.7054 6.1598,-1.8511 11.1993,-7.3204 12.6281,-13.7051 0.6575,-2.938 1.7571,-5.8079 2.4437,-6.3777 0.6865,-0.5697 4.3262,-0.9019 8.0882,-0.7381 l 6.84,0.2977 -0.1304,7.145 c -0.2908,15.9283 -11.1546,26.1553 -31.0612,29.2404 -6.5221,1.0108 -47.5545,1.3424 -54.8084,0.4429 z m 142.3102,-0.3713 c -21.0938,-2.4598 -32.6766,-11.4159 -37.4495,-28.957 -2.7292,-10.03 -2.4948,-35.0748 0.4164,-44.5068 4.8544,-15.7272 13.3337,-23.4675 29.7229,-27.1323 14.8006,-3.3096 61.404,-2.5923 76.0327,1.1701 12.5681,3.2325 21.9479,13.051 25.6339,26.8328 2.8184,10.5381 2.7859,33.3719 -0.062,43.5636 -5.0401,18.0364 -15.3104,26.4642 -35.4371,29.0795 -8.4803,1.1019 -49.2766,1.0674 -58.8573,-0.05 z m 61.6138,-15.9109 c 2.1582,-0.6799 6.0882,-3.3309 8.7334,-5.8911 6.2933,-6.0913 7.8471,-11.8682 7.8307,-29.1151 -0.018,-18.5844 -2.3117,-25.4215 -10.3902,-30.9652 -5.7969,-3.978 -12.5408,-5.1525 -33.0979,-5.7642 -17.6568,-0.5253 -31.9453,0.4511 -39.8208,2.7212 -4.272,1.2315 -11.0796,6.9082 -13.1988,11.0062 -3.5706,6.9048 -4.1259,32.1594 -0.9401,42.7572 2.6416,8.7875 9.5235,14.3142 20.1912,16.2151 7.2554,1.2928 55.9854,0.5187 60.6925,-0.9641 z M 1567,1236.9065 c -14.5089,-1.8748 -22.5786,-6.2366 -26.4286,-14.2852 -2.9429,-6.152 -4.4372,-17.8731 -2.5661,-20.1276 1.5963,-1.9235 15.2471,-2.122 16.7499,-0.2437 0.5501,0.6875 1.2041,3.8305 1.4535,6.9845 0.51,6.4526 2.3136,9.1445 7.7913,11.629 2.9041,1.3172 8.9613,1.6482 35.5787,1.9443 36.8796,0.4103 42.1112,-0.1457 47.1281,-5.0082 3.0234,-2.9305 3.2932,-3.6973 3.2932,-9.3609 0,-4.814 -0.4762,-6.7743 -2.1679,-8.925 -4.4033,-5.598 -6.0481,-5.8287 -46.8321,-6.571 -35.0501,-0.6379 -37.9559,-0.8289 -44.4784,-2.9233 -4.8831,-1.568 -8.0845,-3.347 -10.6624,-5.9249 -7.2696,-7.2696 -8.8493,-21.8834 -3.6041,-33.3406 5.9471,-12.9901 17.8173,-16.1798 60.2449,-16.1887 25.9089,-0.01 35.1656,0.8938 45.0838,4.3798 9.9927,3.5121 15.7999,10.2738 16.9876,19.7798 0.9778,7.8261 0.1804,8.7114 -8.175,9.0766 -6.0643,0.265 -7.1057,0.041 -8.6456,-1.8608 -0.9629,-1.1892 -1.7508,-3.4828 -1.7508,-5.0968 0,-3.725 -3.5297,-7.3279 -8.6223,-8.8009 -13.6192,-3.9396 -58.956,-3.9448 -70.9628,-0.01 -1.6967,0.5564 -4.3461,2.3279 -5.8875,3.9367 -2.3459,2.4486 -2.8155,3.8223 -2.8821,8.4313 -0.094,6.4967 2.4611,10.0476 8.2896,11.521 1.9608,0.4956 17.9651,1.186 35.5651,1.5341 17.6,0.3481 35.5905,1.098 39.979,1.6666 18.8528,2.4424 26.8265,11.0618 26.7855,28.9546 -0.043,18.5938 -8.2748,26.3627 -30.5694,28.8487 -11.0984,1.2376 -61.0697,1.2225 -70.6951,-0.021 z m 155,0.4416 c -12.76,-1.9372 -22.3861,-5.7135 -27.124,-10.6407 -3.8447,-3.9983 -6.6911,-12.0342 -7.8068,-22.0401 -1.5277,-13.7002 -1.4264,-65.9101 0.1308,-67.4673 0.671,-0.671 3.8889,-1.2 7.3,-1.2 3.4111,0 6.629,0.529 7.3,1.2 0.8625,0.8625 1.2067,7.6833 1.2237,24.25 0.028,27.2338 1.2403,45.2371 3.3137,49.2079 2.2405,4.2909 6.6777,8.0716 11.6768,9.9494 3.3415,1.2552 8.9499,1.8063 21.9858,2.1602 26.7718,0.7269 38.3303,-1.5539 46.8411,-9.2429 6.8909,-6.2255 7.3401,-8.7307 7.8936,-44.0246 0.2927,-18.663 0.8889,-31.4975 1.4982,-32.25 1.3156,-1.625 12.9522,-1.6649 14.5671,-0.05 0.9001,0.9001 1.2,13.2222 1.2,49.3 0,36.0778 -0.2999,48.3999 -1.2,49.3 -0.671,0.671 -3.8889,1.2 -7.3,1.2 -3.4111,0 -6.629,-0.529 -7.3,-1.2 -0.66,-0.66 -1.2,-3.585 -1.2,-6.5 0,-2.915 -0.3768,-5.3 -0.8372,-5.3 -0.4605,0 -2.6857,1.7584 -4.9449,3.9075 -4.6075,4.383 -12.075,7.5389 -21.4313,9.0572 -5.8454,0.9486 -40.1705,1.236 -45.7866,0.3834 z m 192.5,-0.8063 c -15.2818,-3.2148 -21.904,-9.4567 -24.409,-23.0072 -0.6262,-3.3877 -1.091,-18.1775 -1.091,-34.7183 l 0,-28.8163 -11.3,0 c -7.4556,0 -11.7083,-0.4083 -12.5,-1.2 -0.66,-0.66 -1.2,-3.27 -1.2,-5.8 0,-2.53 0.54,-5.14 1.2,-5.8 0.7917,-0.7917 5.0444,-1.2 12.5,-1.2 l 11.3,0 0,-11.3 c 0,-7.4556 0.4083,-11.7083 1.2,-12.5 0.671,-0.671 3.8889,-1.2 7.3,-1.2 3.4111,0 6.629,0.529 7.3,1.2 0.7917,0.7917 1.2,5.0444 1.2,12.5 l 0,11.3 34.8,0 c 25.7333,0 35.1126,0.3126 36,1.2 0.66,0.66 1.2,3.27 1.2,5.8 0,2.53 -0.54,5.14 -1.2,5.8 -0.8874,0.8874 -10.2667,1.2 -36,1.2 l -34.8,0 0.044,27.75 c 0.024,15.2625 0.4316,29.7614 0.9059,32.2197 1.1988,6.214 5.9793,10.4585 13.549,12.03 3.3824,0.7022 11.1987,1.0492 19.0473,0.8456 11.5582,-0.2998 13.6742,-0.6168 16.0707,-2.4071 5.7223,-4.2748 6.6468,-6.5522 7.1558,-17.6265 0.2607,-5.6714 0.9236,-10.8742 1.4733,-11.5617 1.2995,-1.6255 12.9389,-1.6655 14.5544,-0.05 1.651,1.651 1.5213,16.8018 -0.2068,24.1464 -2.6148,11.1142 -10.8803,18.4599 -23.9202,21.2585 -7.7764,1.669 -32.1215,1.6307 -40.173,-0.063 z m 773,0.033 c -12.326,-2.5246 -19.4926,-8.0116 -23.1637,-17.7348 -1.3538,-3.5857 -1.7186,-9.9469 -2.0983,-36.5903 l -0.4596,-32.25 -11.1892,0 c -7.3694,0 -11.5989,-0.4097 -12.3892,-1.2 -0.66,-0.66 -1.2,-3.27 -1.2,-5.8 0,-2.53 0.54,-5.14 1.2,-5.8 0.7917,-0.7917 5.0444,-1.2 12.5,-1.2 l 11.3,0 0,-11.3 c 0,-7.4556 0.4083,-11.7083 1.2,-12.5 0.6909,-0.6909 4,-1.2 7.8,-1.2 3.8,0 7.1091,0.5091 7.8,1.2 0.7917,0.7917 1.2,5.0444 1.2,12.5 l 0,11.3 34.8,0 c 25.7333,0 35.1126,0.3126 36,1.2 0.66,0.66 1.2,3.27 1.2,5.8 0,2.53 -0.54,5.14 -1.2,5.8 -0.8874,0.8874 -10.2667,1.2 -36,1.2 l -34.8,0 0,31.5 0,31.5 3.8945,3.8945 c 4.9005,4.9005 10.0262,6.1075 25.9047,6.0999 14.1394,-0.01 17.7507,-0.903 22.221,-5.5153 3.4083,-3.5164 3.4341,-3.613 3.8143,-14.2597 0.2106,-5.8957 0.839,-11.2819 1.3966,-11.9694 1.3179,-1.6249 12.954,-1.6649 14.5689,-0.05 1.7656,1.7656 1.5425,19.2836 -0.3256,25.5744 -3.1986,10.7707 -10.6936,17.0175 -23.7898,19.8281 -7.7184,1.6564 -32.0447,1.6399 -40.1846,-0.027 z m 318.1304,0.4209 c -19.7714,-2.4576 -28.6411,-7.2504 -34.9837,-18.9038 -4.2928,-7.8872 -5.9815,-16.9747 -5.9637,-32.0922 0.026,-21.602 4.7257,-34.739 15.1608,-42.3742 10.574,-7.737 18.4064,-9.1403 50.6562,-9.0759 27.4333,0.055 37.4031,1.3404 46.6221,6.012 13.1719,6.6747 20.524,22.3491 19.6789,41.9548 l -0.301,6.9833 -56.8943,0.2583 -56.8944,0.2583 0.5749,6.8577 c 0.7158,8.5379 2.7557,13.5423 7.5079,18.4191 6.366,6.5329 10.3586,7.2066 42.7059,7.2066 30.7393,0 34.666,-0.5396 40.8162,-5.6091 2.1153,-1.7436 3.8064,-4.207 4.2218,-6.1498 1.0968,-5.1301 2.0956,-5.7411 9.3844,-5.7411 9.7099,0 10.894,2.0702 7.0541,12.3333 -2.4357,6.5101 -7.6908,12.1867 -13.6441,14.7385 -10.7547,4.6101 -14.7567,5.1261 -42.3324,5.4586 -14.575,0.1757 -29.5913,-0.065 -33.3696,-0.5344 z M 3078,1171.4679 c 0,-10.2202 -6.4082,-17.2632 -18.1337,-19.9301 -16.2468,-3.6953 -53.6865,-2.9227 -63.2438,1.305 -7.2655,3.2139 -11.393,9.3363 -13.0836,19.4072 l -0.6295,3.75 47.5453,0 47.5453,0 0,-4.5321 z m 226.6304,65.5241 c -15.1712,-1.8769 -26.6326,-6.4564 -31.1119,-12.4311 -7.5946,-10.13 -11.14,-25.078 -10.1585,-42.8305 1.5397,-27.8497 10.5476,-40.563 32.14,-45.3611 9.0998,-2.0221 37.8897,-2.8149 53.7213,-1.4795 25.5651,2.1566 35.3809,7.412 42.2781,22.6359 3.8622,8.5245 5.9803,28.5946 3.3006,31.2743 -0.9047,0.9047 -14.9654,1.2 -57.1443,1.2 l -55.9444,0 0.5695,7.5296 c 1.0085,13.3343 6.6175,20.7012 17.9877,23.6251 7.5046,1.9298 59.5957,1.9071 65.2315,-0.029 6.2216,-2.1367 10.2897,-5.6923 11.6296,-10.1644 0.6567,-2.192 1.7558,-4.4517 2.4422,-5.0214 0.6865,-0.5697 4.2792,-0.9019 7.9838,-0.7381 8.8064,0.3892 9.3943,1.3118 6.6316,10.4072 -3.2508,10.7027 -10.1401,16.3493 -24.418,20.0137 -7.2538,1.8617 -53.329,2.8299 -65.1388,1.3688 z M 3377,1171.9679 c 0,-7.6102 -4.2213,-14.4956 -11,-17.942 -5.7672,-2.9322 -13.6138,-4.1256 -31,-4.715 -18.3072,-0.6207 -33.0101,0.7114 -39.4596,3.5748 -7.7598,3.4452 -13.5404,12.6937 -13.5404,21.6635 0,1.2474 6.6607,1.4508 47.5,1.4508 l 47.5,0 0,-4.0321 z M 1392.2,1235.8 c -0.9001,-0.9001 -1.2,-13.2222 -1.2,-49.3 0,-36.0778 0.2999,-48.3999 1.2,-49.3 0.671,-0.671 3.8889,-1.2 7.3,-1.2 3.4111,0 6.629,0.529 7.3,1.2 0.66,0.66 1.2,3.585 1.2,6.5 0,2.915 0.2777,5.3 0.617,5.3 0.3394,0 2.3901,-1.827 4.5572,-4.06 8.0864,-8.3325 17.9946,-10.4565 48.3258,-10.3593 24.5952,0.079 32.0242,1.0664 41.1365,5.4684 10.7196,5.1785 14.8946,13.0427 16.369,30.8336 1.4369,17.3373 1.291,63.4208 -0.2055,64.9173 -1.6396,1.6396 -14.2346,1.5862 -15.6059,-0.066 -0.6752,-0.8136 -1.1657,-13.5915 -1.3724,-35.75 -0.3514,-37.6675 -0.2971,-37.3055 -6.4824,-43.1809 -3.9992,-3.7986 -8.7508,-5.5415 -18.4106,-6.7527 -15.2742,-1.9152 -38.4266,-0.7656 -49.5926,2.4626 -6.4303,1.859 -14.3944,8.0392 -16.9204,13.1302 -1.7428,3.5124 -1.9437,6.7599 -2.2502,36.3569 -0.2119,20.4658 -0.7205,32.9629 -1.3735,33.75 -1.3472,1.624 -12.9781,1.6639 -14.592,0.05 z m 443,0 c -1.7361,-1.7361 -1.7361,-141.8639 0,-143.6 0.671,-0.671 3.8889,-1.2 7.3,-1.2 3.4111,0 6.629,0.529 7.3,1.2 0.9107,0.9107 1.2,18.2222 1.2,71.8 0,53.5778 -0.2893,70.8893 -1.2,71.8 -0.671,0.671 -3.8889,1.2 -7.3,1.2 -3.4111,0 -6.629,-0.529 -7.3,-1.2 z m 162,0 c -0.9001,-0.9001 -1.2,-13.2222 -1.2,-49.3 0,-36.0778 0.2999,-48.3999 1.2,-49.3 0.671,-0.671 3.8889,-1.2 7.3,-1.2 3.4111,0 6.629,0.529 7.3,1.2 0.9001,0.9001 1.2,13.2222 1.2,49.3 0,36.0778 -0.2999,48.3999 -1.2,49.3 -0.671,0.671 -3.8889,1.2 -7.3,1.2 -3.4111,0 -6.629,-0.529 -7.3,-1.2 z m 39,0 c -0.9001,-0.9001 -1.2,-13.2222 -1.2,-49.3 0,-36.0778 0.2999,-48.3999 1.2,-49.3 0.6909,-0.6909 4,-1.2 7.8,-1.2 3.8,0 7.1091,0.5091 7.8,1.2 0.66,0.66 1.2,3.36 1.2,6 0,5.6281 1.11,6.0112 4.7799,1.6497 3.1839,-3.7838 10.6752,-7.261 19.3498,-8.9815 7.9915,-1.585 49.1596,-1.6808 56.8703,-0.1324 17.7165,3.5578 26.1523,11.2484 29.0399,26.4747 1.4656,7.7279 1.2557,72.0939 -0.2399,73.5895 -0.671,0.671 -3.8889,1.2 -7.3,1.2 -3.4111,0 -6.629,-0.529 -7.3,-1.2 -0.8812,-0.8812 -1.2,-9.3474 -1.2,-31.8635 0,-16.8649 -0.4589,-33.0831 -1.0197,-36.0404 -2.0065,-10.5803 -9.362,-16.0631 -23.9541,-17.8553 -10.8787,-1.3362 -21.9154,-1.3189 -35.5726,0.056 -13.9281,1.4018 -20.492,3.8468 -26.526,9.8808 -6.531,6.531 -6.9276,9.0998 -6.9276,44.872 0,21.8062 -0.3204,30.0712 -1.2,30.9508 -0.6909,0.6909 -4,1.2 -7.8,1.2 -3.8,0 -7.1091,-0.5091 -7.8,-1.2 z m 398.7614,-0.55 C 2432.425,1231.045 2389,1138.5297 2389,1137.3312 c 0,-1.8223 16.3011,-1.8968 17.7585,-0.081 0.5518,0.6875 9.5891,19.7 20.0828,42.25 10.4937,22.55 19.5906,41 20.2152,41 0.6247,0 7.7653,-18.3108 15.868,-40.6907 8.1027,-22.3798 15.3145,-41.3923 16.0263,-42.25 1.039,-1.2519 3.6307,-1.5593 13.1486,-1.5593 11.2066,0 11.932,0.123 13.2731,2.25 0.7802,1.2375 8.0553,20.3625 16.1669,42.5 8.1115,22.1375 15.2461,40.2355 15.8544,40.2177 0.6084,-0.018 9.3872,-18.1302 19.5085,-40.25 10.1213,-22.1197 19.0192,-41.2302 19.7731,-42.4677 1.2468,-2.0466 2.1317,-2.25 9.7886,-2.25 4.6299,0 8.6799,0.4238 9,0.9418 0.646,1.0452 -45.2087,98.1249 -46.9001,99.2929 -1.9193,1.3254 -23.3611,0.8969 -24.2512,-0.4847 -0.4429,-0.6875 -7.6002,-19.475 -15.905,-41.75 -9.9742,-26.7528 -15.573,-40.5 -16.4941,-40.5 -0.9248,0 -6.3386,13.4733 -16.0727,40 -8.073,22 -15.1686,40.7875 -15.768,41.75 -0.9353,1.5018 -2.7185,1.75 -12.5729,1.75 -9.8675,0 -11.6316,-0.2462 -12.5386,-1.75 z m 173.2386,0.55 c -0.9001,-0.9001 -1.2,-13.2222 -1.2,-49.3 0,-36.0778 0.2999,-48.3999 1.2,-49.3 0.671,-0.671 3.8889,-1.2 7.3,-1.2 3.4111,0 6.629,0.529 7.3,1.2 0.9001,0.9001 1.2,13.2222 1.2,49.3 0,36.0778 -0.2999,48.3999 -1.2,49.3 -0.671,0.671 -3.8889,1.2 -7.3,1.2 -3.4111,0 -6.629,-0.529 -7.3,-1.2 z m 162,0 c -0.9107,-0.9107 -1.2,-18.2222 -1.2,-71.8 0,-53.5778 0.2893,-70.8893 1.2,-71.8 0.6909,-0.6909 4,-1.2 7.8,-1.2 3.8,0 7.1091,0.5091 7.8,1.2 0.8747,0.8747 1.2,8.6 1.2,28.5 0,15.015 0.339,27.3 0.7532,27.3 0.4143,0 2.0463,-1.3699 3.6265,-3.0442 6.9953,-7.4115 16.801,-9.876 42.1203,-10.5861 39.5361,-1.109 55.9945,4.6961 62.0457,21.8844 1.6338,4.641 1.8907,9.4324 2.2275,41.5507 0.2857,27.2365 0.081,36.6658 -0.8187,37.75 -1.5397,1.8552 -13.2417,2.0089 -14.7483,0.1937 -0.6511,-0.7845 -1.212,-13.7504 -1.5033,-34.75 -0.2555,-18.4242 -0.8069,-34.7945 -1.2252,-36.3786 -0.4183,-1.584 -2.6094,-4.8004 -4.8691,-7.1476 -5.9119,-6.1406 -11.3614,-7.5641 -31.4327,-8.2104 -17.8924,-0.5762 -31.3378,0.7247 -39.7016,3.8412 -6.395,2.383 -13.8923,9.8876 -15.3817,15.3969 -0.6655,2.4615 -1.0836,15.9424 -1.087,35.05 0,22.8102 -0.324,31.3684 -1.2056,32.25 -0.6909,0.6909 -4,1.2 -7.8,1.2 -3.8,0 -7.1091,-0.5091 -7.8,-1.2 z m 347,0 c -0.9001,-0.9001 -1.2,-13.2222 -1.2,-49.3 0,-36.0778 0.2999,-48.3999 1.2,-49.3 0.671,-0.671 3.8889,-1.2 7.3,-1.2 3.4111,0 6.629,0.529 7.3,1.2 0.66,0.66 1.2,3.585 1.2,6.5 0,2.915 0.2777,5.3 0.617,5.3 0.3394,0 2.3901,-1.827 4.5572,-4.06 8.1212,-8.3685 17.2659,-10.3414 47.8258,-10.3182 24.0507,0.018 32.0827,0.9657 40.5061,4.7783 11.4799,5.1961 16.0748,13.5838 17.5036,31.9516 1.4214,18.2741 1.276,62.9626 -0.2097,64.4483 -0.6909,0.6909 -4,1.2 -7.8,1.2 -3.8,0 -7.1091,-0.5091 -7.8,-1.2 -0.8821,-0.8821 -1.2,-9.478 -1.2,-32.4508 0,-18.9487 -0.4329,-33.2695 -1.0998,-36.3788 -1.3177,-6.1445 -5.6985,-11.5512 -11.4042,-14.0752 -10.8999,-4.8216 -46.0567,-5.0378 -62.1599,-0.3823 -6.4303,1.859 -14.3944,8.0392 -16.9204,13.1302 -1.7428,3.5124 -1.9437,6.7599 -2.2502,36.3569 -0.2119,20.4658 -0.7205,32.9629 -1.3735,33.75 -1.3472,1.624 -12.9781,1.6639 -14.592,0.05 z m 298,0 c -0.9001,-0.9001 -1.2,-13.2222 -1.2,-49.3 0,-36.0778 0.2999,-48.3999 1.2,-49.3 0.6909,-0.6909 4,-1.2 7.8,-1.2 3.8,0 7.1091,0.5091 7.8,1.2 0.66,0.66 1.2,3.135 1.2,5.5 0,2.365 0.2684,4.3 0.5966,4.3 0.3281,0 2.603,-1.7662 5.0554,-3.9249 2.4524,-2.1587 6.5715,-4.6464 9.1535,-5.5281 7.3658,-2.5156 23.3698,-3.872 37.6945,-3.1949 23.5899,1.1151 30.9657,4.7642 37.2465,18.4271 3.0762,6.6918 5.2744,25.2858 3.2742,27.6958 -1.5727,1.895 -13.9955,2.1502 -15.8207,0.325 -0.66,-0.66 -1.2,-3.7879 -1.2,-6.9508 0,-9.9834 -1.6658,-15.3145 -6.0122,-19.2412 -4.9986,-4.516 -8.1857,-5.1082 -27.4878,-5.1072 -19.0011,0 -26.961,1.4365 -32.8024,5.9157 -8.5884,6.5853 -9.684,12.3095 -9.6918,50.6335 0,20.8655 -0.3288,28.873 -1.2058,29.75 -0.6909,0.6909 -4,1.2 -7.8,1.2 -3.8,0 -7.1091,-0.5091 -7.8,-1.2 z m -1418,-126 c -0.7228,-0.7228 -1.2,-4.2222 -1.2,-8.8 0,-4.5778 0.4772,-8.0772 1.2,-8.8 0.671,-0.671 3.8889,-1.2 7.3,-1.2 3.4111,0 6.629,0.529 7.3,1.2 0.7228,0.7228 1.2,4.2222 1.2,8.8 0,4.5778 -0.4772,8.0772 -1.2,8.8 -0.671,0.671 -3.8889,1.2 -7.3,1.2 -3.4111,0 -6.629,-0.529 -7.3,-1.2 z m 611,0 c -0.7228,-0.7228 -1.2,-4.2222 -1.2,-8.8 0,-4.5778 0.4772,-8.0772 1.2,-8.8 0.671,-0.671 3.8889,-1.2 7.3,-1.2 3.4111,0 6.629,0.529 7.3,1.2 0.7228,0.7228 1.2,4.2222 1.2,8.8 0,4.5778 -0.4772,8.0772 -1.2,8.8 -0.671,0.671 -3.8889,1.2 -7.3,1.2 -3.4111,0 -6.629,-0.529 -7.3,-1.2 z"
       id="path3025"
       inkscape:connector-curvature="0" />
  </g>
</svg>
